<svg width="832" height="475" viewBox="0 0 832 475" fill="none" xmlns="http://www.w3.org/2000/svg">
<path d="M467.253 0.234863H24.8746V213.328H5.16113V331.843V471.949H777.975V201.594H739.487L738.548 0.234863H467.253Z" fill="#DCDFE0"/>
<path d="M289.834 0.234863V372.443H359.3V383.239H19.7129V459.042H757.089V383.239H543.996V372.678H623.554V218.96H487.672V0.234863H289.834ZM418.675 372.209H511.845V382.769H418.675V372.209Z" fill="#6D7373"/>
<path d="M279.038 191.033H289.833V0.234863H279.038V191.033Z" fill="#DCDFE0"/>
<path d="M487.906 190.563H498.702V0.234863H487.906V190.563Z" fill="#DCDFE0"/>
<path d="M271.058 440.502H226.234V395.677H271.058V440.502Z" fill="white"/>
<path d="M249.467 424.309H232.335C232.804 423.37 233.743 422.901 233.743 422.901C233.743 422.901 233.743 422.901 233.978 422.901L249.467 415.391L264.252 422.901C264.252 422.901 265.425 423.37 266.13 424.309C261.905 424.309 251.579 424.309 249.467 424.309ZM265.425 420.319L251.814 413.279C252.987 412.575 253.691 411.167 253.691 409.524C253.691 406.942 251.579 405.065 249.232 405.065C247.355 405.065 245.477 406.238 245.008 408.116C244.773 408.82 245.243 409.524 245.712 409.759C246.416 409.993 247.12 409.524 247.355 409.055C247.59 408.116 248.294 407.646 249.232 407.646C250.406 407.646 251.344 408.585 251.344 409.759C251.344 410.932 248.763 412.575 248.059 413.044C246.885 413.748 232.804 420.554 232.804 420.554C232.335 420.789 229.284 422.197 229.284 425.952C229.284 426.656 229.988 427.36 230.692 427.36H249.467C252.283 427.36 268.007 427.36 268.007 427.36C268.711 427.36 269.415 426.656 269.415 425.952C269.415 422.197 265.895 420.554 265.425 420.319Z" fill="#2E4083"/>
<path d="M550.332 440.502H505.508V395.677H550.332V440.502Z" fill="white"/>
<path d="M528.74 424.309H511.608C512.078 423.37 513.017 422.901 513.017 422.901C513.017 422.901 513.017 422.901 513.251 422.901L528.74 415.391L543.525 422.901C543.525 422.901 544.699 423.37 545.403 424.309C541.179 424.309 530.853 424.309 528.74 424.309ZM544.699 420.319L531.087 413.279C532.261 412.575 532.965 411.167 532.965 409.524C532.965 406.942 530.853 405.065 528.506 405.065C526.628 405.065 524.751 406.238 524.281 408.116C524.047 408.82 524.516 409.524 524.985 409.759C525.69 409.993 526.394 409.524 526.628 409.055C526.863 408.116 527.567 407.646 528.506 407.646C529.679 407.646 530.618 408.585 530.618 409.759C530.618 410.932 528.036 412.575 527.332 413.044C526.159 413.748 512.078 420.554 512.078 420.554C511.609 420.789 508.558 422.197 508.558 425.952C508.558 426.656 509.262 427.36 509.966 427.36H528.74C531.557 427.36 547.28 427.36 547.28 427.36C547.984 427.36 548.689 426.656 548.689 425.952C548.454 422.197 545.168 420.554 544.699 420.319Z" fill="#2E4083"/>
<path d="M341.933 191.502H297.109V146.677H341.933V191.502Z" fill="white"/>
<path d="M325.741 159.82C323.159 159.82 321.047 161.697 319.874 162.636V179.064C321.047 178.36 323.394 176.717 325.506 176.717C327.384 176.717 331.373 176.717 331.373 176.717C331.373 176.717 332.312 176.717 332.312 175.778C332.312 174.605 332.312 159.585 332.312 159.585C332.312 159.585 327.149 159.82 325.741 159.82ZM318.935 162.636C317.996 161.697 315.65 159.82 313.068 159.82C310.487 159.82 306.262 159.82 306.262 159.82C306.262 159.82 306.262 175.074 306.262 176.013C306.262 176.717 307.201 176.717 307.201 176.717C307.201 176.717 310.252 176.717 312.833 176.717C314.946 176.717 317.762 178.595 318.935 179.299V162.636ZM336.302 180.472H324.333C324.333 180.472 321.517 181.645 319.639 181.645C317.762 181.645 315.415 180.472 315.415 180.472H302.742V160.993H303.915C303.915 158.881 303.915 157.238 303.915 157.238C303.915 157.238 309.078 157.473 313.068 157.473C316.588 157.473 319.639 160.524 319.639 160.524C319.639 160.524 322.69 157.473 325.976 157.473H335.128C335.128 157.473 335.128 158.881 335.128 160.993H336.302V180.472Z" fill="#2E4083"/>
<path d="M480.397 191.502H435.573V146.677H480.397V191.502Z" fill="white"/>
<path d="M472.887 178.126C472.183 178.126 471.714 177.656 471.714 176.952V169.677C471.714 162.167 465.612 156.066 458.102 156.066C450.592 156.066 444.49 162.167 444.49 169.677V176.952C444.49 177.656 444.021 178.126 443.317 178.126C442.613 178.126 442.144 177.656 442.144 176.952V169.677C442.144 160.759 449.419 153.719 458.102 153.719C467.02 153.719 474.061 160.994 474.061 169.677V176.952C474.061 177.422 473.591 178.126 472.887 178.126Z" fill="#2E4083"/>
<path d="M448.48 184.931H446.603C445.899 184.931 445.429 184.696 445.429 183.758V174.84C445.429 174.136 445.664 173.901 446.603 173.901H448.48C450.827 173.901 450.827 177.891 450.827 179.533C450.827 180.941 450.827 184.931 448.48 184.931Z" fill="#2E4083"/>
<path d="M465.376 179.299C465.376 177.656 465.376 173.667 467.723 173.667H469.601C470.305 173.667 470.774 173.901 470.774 174.605V183.523C470.774 184.227 470.54 184.697 469.601 184.697H467.723C465.376 184.931 465.376 180.942 465.376 179.299Z" fill="#2E4083"/>
<path d="M480.397 139.637H435.573V95.0474H480.397V139.637Z" fill="white"/>
<path d="M454.816 111.476H453.173C453.173 110.068 453.877 109.598 454.581 108.894C455.051 108.425 455.285 108.19 455.285 107.721C455.285 107.251 455.051 107.017 454.581 106.547C454.112 106.078 453.173 105.374 453.173 103.966C453.173 102.558 453.877 102.088 454.581 101.384C455.051 100.915 455.285 100.68 455.285 100.211H457.163C457.163 101.619 456.459 102.088 455.755 102.792C455.286 103.262 455.051 103.497 455.051 103.966C455.051 104.435 455.286 104.67 455.755 105.139C456.224 105.609 457.163 106.313 457.163 107.721C457.163 109.129 456.459 109.598 455.755 110.302C455.051 110.772 454.816 111.006 454.816 111.476Z" fill="#2E4083"/>
<path d="M460.214 111.476H458.337C458.337 110.068 459.041 109.598 459.745 108.894C460.214 108.425 460.449 108.19 460.449 107.721C460.449 107.251 460.214 107.017 459.745 106.547C459.275 106.078 458.337 105.374 458.337 103.966C458.337 102.558 459.041 102.088 459.745 101.384C460.214 100.915 460.449 100.68 460.449 100.211H462.326C462.326 101.619 461.622 102.088 460.918 102.792C460.449 103.262 460.214 103.497 460.214 103.966C460.214 104.435 460.449 104.67 460.918 105.139C461.388 105.609 462.326 106.313 462.326 107.721C462.326 109.129 461.622 109.598 460.918 110.302C460.449 110.772 460.214 111.006 460.214 111.476Z" fill="#2E4083"/>
<path d="M473.122 123.445H471.714C472.183 122.271 472.418 121.098 472.653 119.69H473.122C474.061 119.69 475 120.629 475 121.567C475 122.506 474.061 123.445 473.122 123.445ZM469.602 117.812C469.602 124.384 464.204 129.781 457.633 129.781H456.929C450.358 129.781 444.96 124.384 444.96 117.812V117.578H457.398H469.837V117.812H469.602ZM473.122 117.343H472.887V116.17C472.887 115.935 472.887 115.7 472.653 115.466C472.418 114.762 471.949 114.527 471.245 114.527H443.552C442.848 114.527 442.379 114.996 442.144 115.466C442.144 115.7 441.909 115.935 441.909 116.17V117.812C441.909 118.282 441.909 118.516 441.909 118.986C443.317 132.128 454.113 133.067 457.398 133.067C459.98 133.067 467.255 132.363 470.775 125.557C470.775 125.557 470.775 125.557 471.01 125.557H473.122C475.469 125.557 477.346 123.68 477.346 121.333C477.346 118.986 475.469 117.343 473.122 117.343Z" fill="#2E4083"/>
<path d="M341.465 139.637H296.875V95.0474H341.465V139.637Z" fill="white"/>
<path d="M319.17 102.323C310.956 102.323 304.15 109.129 304.15 117.342C304.15 125.556 310.956 132.362 319.17 132.362C327.384 132.362 334.19 125.556 334.19 117.342C334.19 109.129 327.618 102.323 319.17 102.323ZM319.17 134.944C309.548 134.944 301.569 126.965 301.569 117.342C301.569 107.72 309.548 99.7412 319.17 99.7412C328.792 99.7412 336.771 107.72 336.771 117.342C337.006 126.965 329.027 134.944 319.17 134.944Z" fill="#2E4083"/>
<path d="M323.159 119.924C322.925 120.394 322.221 121.098 321.751 121.332L310.956 126.026C310.486 126.261 310.252 126.026 310.486 125.557L315.18 114.761C315.415 114.292 316.119 113.588 316.588 113.353L327.384 108.659C327.853 108.425 328.088 108.659 327.853 109.129L323.159 119.924Z" fill="#2E4083"/>
<path d="M321.516 119.454C320.342 120.628 318.465 120.628 317.291 119.454C316.118 118.281 316.118 116.404 317.291 115.23C318.465 114.057 320.342 114.057 321.516 115.23C322.689 116.404 322.689 118.281 321.516 119.454Z" fill="white"/>
<path d="M767.18 464.205H10.7947V207.696H30.5081V11.0311H41.3036V218.492H21.5901V453.645H756.62V218.492H736.906V10.7964H747.702V207.931H767.415V464.205H767.18Z" fill="#DCDFE0"/>
<path d="M827.962 413.044H794.872V409.524H827.962V413.044Z" fill="#2E4083"/>
<path d="M816.464 425.483L814.117 422.902L826.555 411.402L814.117 399.903L816.464 397.321L831.483 411.402L816.464 425.483Z" fill="#2E4083"/>
<mask id="mask0_183_803" style="mask-type:luminance" maskUnits="userSpaceOnUse" x="0" y="0" width="832" height="475">
<path d="M831.719 0H0V475H831.719V0Z" fill="white"/>
</mask>
<g mask="url(#mask0_183_803)">
<path d="M747.468 207.93H767.181V383.239H777.977V197.135H758.263V0.234863H498.468V11.0303H747.468V207.93Z" fill="#959C9D"/>
<path d="M767.181 438.624V464.205H10.7954V207.695H30.5089V11.0303H279.039V0.234863H19.7134V196.9H0V475H777.977V438.624H767.181Z" fill="#959C9D"/>
</g>
<path d="M623.554 302.507H487.672V373.382H498.468V313.303H623.554V302.507Z" fill="#DCDFE0"/>
<path d="M498.468 270.355H487.672V216.613H498.468V270.355Z" fill="#DCDFE0"/>
<path d="M550.802 365.168H505.977V320.343H550.802V365.168Z" fill="white"/>
<path d="M528.272 326.915C526.629 326.915 525.221 328.323 525.221 329.965C525.221 331.608 526.629 333.016 528.272 333.016C529.915 333.016 531.323 331.608 531.323 329.965C531.323 328.088 529.915 326.915 528.272 326.915ZM528.272 335.598C525.221 335.598 522.64 333.016 522.64 329.965C522.64 326.915 525.221 324.333 528.272 324.333C531.323 324.333 533.905 326.915 533.905 329.965C534.139 333.016 531.558 335.598 528.272 335.598ZM520.293 340.526L528.272 355.781L536.251 340.526H520.293ZM528.272 360.005C527.803 360.005 527.333 359.77 527.099 359.301L516.773 339.822C516.538 339.353 516.538 338.883 516.773 338.414C517.007 337.945 517.477 337.71 517.946 337.71H538.598C539.068 337.71 539.537 337.945 539.772 338.414C540.006 338.883 540.006 339.353 539.772 339.822L529.446 359.301C529.211 359.77 528.742 360.005 528.272 360.005Z" fill="#2E4083"/>
<path d="M550.802 270.356H505.977V225.531H550.802V270.356Z" fill="white"/>
<path d="M528.272 232.337C526.629 232.337 525.221 233.745 525.221 235.388C525.221 237.031 526.629 238.439 528.272 238.439C529.915 238.439 531.323 237.031 531.323 235.388C531.323 233.745 529.915 232.337 528.272 232.337ZM528.272 241.021C525.221 241.021 522.64 238.439 522.64 235.388C522.64 232.337 525.221 229.756 528.272 229.756C531.323 229.756 533.905 232.337 533.905 235.388C534.139 238.439 531.558 241.021 528.272 241.021ZM520.293 262.846H536.486L528.507 247.592L520.293 262.846ZM538.598 265.428H517.946C517.477 265.428 517.007 265.193 516.773 264.724C516.538 264.254 516.538 263.785 516.773 263.316L527.099 243.837C527.333 243.368 527.803 243.133 528.272 243.133C528.742 243.133 529.211 243.368 529.446 243.837L539.772 263.316C540.006 263.785 540.006 264.254 539.772 264.724C539.537 265.193 539.068 265.428 538.598 265.428Z" fill="#2E4083"/>
<path d="M359.3 270.356H348.505V191.268H359.3V270.356Z" fill="#DCDFE0"/>
<path d="M359.3 95.0469H348.505V0H359.3V95.0469Z" fill="#DCDFE0"/>
<path d="M429.472 95.5163H418.676V0H429.472V95.5163Z" fill="#DCDFE0"/>
<path d="M429.472 270.356H418.676V191.268H429.472V270.356Z" fill="#DCDFE0"/>
<path d="M429.472 382.065H418.676V302.507H429.472V382.065Z" fill="#DCDFE0"/>
<path d="M341.933 365.168H297.109V320.343H341.933V365.168Z" fill="white"/>
<path d="M480.397 270.356H435.573V225.531H480.397V270.356Z" fill="white"/>
<path d="M435.573 240.55H480.397V244.071H435.573V240.55Z" fill="#2E4083"/>
<path d="M435.573 250.408H480.397V253.928H435.573V250.408Z" fill="#2E4083"/>
<path d="M435.573 260.264H480.397V263.784H435.573V260.264Z" fill="#2E4083"/>
<path d="M341.933 270.356H297.109V225.531H341.933V270.356Z" fill="white"/>
<path d="M297.109 240.55H341.933V244.071H297.109V240.55Z" fill="#2E4083"/>
<path d="M297.109 250.408H341.933V253.928H297.109V250.408Z" fill="#2E4083"/>
<path d="M297.109 260.264H341.933V263.784H297.109V260.264Z" fill="#2E4083"/>
<path d="M411.4 78.6185H366.576V33.7939H411.4V78.6185Z" fill="white"/>
<path d="M366.576 48.5801H411.4V52.1003H366.576V48.5801Z" fill="#2E4083"/>
<path d="M366.576 58.436H411.4V61.9563H366.576V58.436Z" fill="#2E4083"/>
<path d="M366.576 68.5278H411.4V72.0481H366.576V68.5278Z" fill="#2E4083"/>
<path d="M146.677 440.502H102.087V395.677H146.912V440.502H146.677Z" fill="white"/>
<path d="M110.536 427.83H137.994V411.871H110.536V427.83ZM138.698 430.881H110.067C108.659 430.881 107.485 429.707 107.485 428.299V411.402C107.485 409.994 108.659 408.82 110.067 408.82H138.698C140.106 408.82 141.28 409.994 141.28 411.402V428.299C141.28 429.707 140.106 430.881 138.698 430.881Z" fill="#2E4083"/>
<path d="M128.841 406.003H119.689V409.288H128.607V406.003H128.841ZM128.841 411.4H119.923C118.75 411.4 117.811 410.462 117.811 409.288V406.003C117.811 404.829 118.75 403.891 119.923 403.891H129.076C130.25 403.891 131.188 404.829 131.188 406.003V409.288C130.954 410.462 130.015 411.4 128.841 411.4Z" fill="#2E4083"/>
<path d="M410.46 168.269H365.87V123.679H410.46V168.269Z" fill="white"/>
<path d="M371.736 160.523L375.491 156.768C374.787 156.768 374.083 156.533 373.379 156.533C373.379 155.595 373.614 154.656 373.614 153.717C375.726 153.952 377.603 154.187 379.716 154.187L379.95 154.421C380.185 156.533 380.42 158.411 380.42 160.523C379.481 160.523 378.542 160.758 377.603 160.758C377.603 160.054 377.369 159.35 377.369 158.646C375.961 160.054 374.787 161.227 373.614 162.401C373.144 161.931 372.44 161.227 371.736 160.523Z" fill="#2E4083"/>
<path d="M373.848 129.546C375.022 130.719 376.195 131.893 377.603 133.301C377.603 132.597 377.838 131.893 377.838 131.189C378.777 131.189 379.716 131.423 380.654 131.423C380.42 133.066 380.42 134.474 380.185 135.882C380.185 136.352 380.185 136.821 379.95 137.29L379.716 137.525C377.603 137.76 375.726 137.995 373.614 137.995C373.614 137.056 373.379 136.117 373.379 135.178C374.083 135.178 374.787 134.944 375.491 134.944C374.083 133.536 372.91 132.362 371.736 131.189L373.848 129.546Z" fill="#2E4083"/>
<path d="M396.144 131.423C397.083 131.423 398.022 131.189 398.96 131.189C398.96 131.893 399.195 132.597 399.195 133.301L402.95 129.546C403.654 130.25 404.358 130.954 404.828 131.423L401.073 135.178C401.777 135.178 402.481 135.413 403.185 135.413C403.185 136.352 402.95 137.29 402.95 138.229C401.307 137.995 399.899 137.995 398.256 137.76C397.787 137.76 397.318 137.76 396.848 137.76C396.614 137.76 396.614 137.525 396.379 137.29C396.379 135.413 396.144 133.301 396.144 131.423Z" fill="#2E4083"/>
<path d="M402.948 153.717C402.948 154.656 403.183 155.595 403.183 156.533C402.479 156.533 401.775 156.768 401.071 156.768L404.826 160.523C404.122 161.227 403.418 161.931 402.714 162.635C401.54 161.462 400.367 160.288 398.959 158.88C398.959 159.584 398.724 160.288 398.724 160.992C397.785 160.992 396.847 160.758 395.908 160.758C395.908 160.523 395.908 160.288 395.908 160.054C396.143 158.411 396.143 156.533 396.377 154.891C396.377 154.656 396.377 154.421 396.612 154.421C398.959 154.187 400.836 153.952 402.948 153.717Z" fill="#2E4083"/>
<path d="M388.399 141.279C385.817 141.279 383.471 143.392 383.471 146.208C383.471 148.789 385.583 151.136 388.399 151.136C390.98 151.136 393.327 149.024 393.327 146.208C393.093 143.392 390.98 141.279 388.399 141.279ZM388.399 153.483C384.409 153.483 381.124 150.197 381.124 146.208C381.124 142.218 384.409 138.933 388.399 138.933C392.389 138.933 395.674 142.218 395.674 146.208C395.674 149.963 392.389 153.483 388.399 153.483Z" fill="#2E4083"/>
<path d="M331.842 346.862C331.373 346.862 330.904 346.393 330.904 345.923V340.056C330.904 333.954 325.975 329.026 319.873 329.026C313.772 329.026 308.843 333.954 308.843 340.056V345.923C308.843 346.393 308.374 346.862 307.905 346.862C307.435 346.862 306.966 346.393 306.966 345.923V340.056C306.966 332.781 312.833 327.148 319.873 327.148C326.914 327.148 332.781 333.016 332.781 340.056V345.923C332.781 346.393 332.312 346.862 331.842 346.862Z" fill="#2E4083"/>
<path d="M312.128 351.087H310.72C310.016 351.087 309.781 350.853 309.781 350.149V342.873C309.781 342.169 310.016 341.935 310.72 341.935H312.128C314.006 341.935 314.006 344.985 314.006 346.394C313.771 347.802 313.771 351.087 312.128 351.087Z" fill="#2E4083"/>
<path d="M325.503 346.629C325.503 345.221 325.503 342.17 327.381 342.17H328.789C329.493 342.17 329.728 342.405 329.728 343.109V350.384C329.728 351.088 329.493 351.323 328.789 351.323H327.381C325.503 351.088 325.503 347.802 325.503 346.629Z" fill="#2E4083"/>
<path d="M307.903 349.21C307.903 349.21 308.137 356.955 316.351 356.016" stroke="#2E4083" stroke-width="0.34" stroke-linecap="round" stroke-linejoin="round"/>
<path d="M318.934 357.424H315.883C315.179 357.424 314.709 356.954 314.709 356.25V356.016C314.709 355.312 315.179 354.842 315.883 354.842H318.934C319.638 354.842 320.107 355.312 320.107 356.016V356.25C320.342 356.954 319.638 357.424 318.934 357.424Z" fill="#2E4083"/>
</svg>
