<svg width="654" height="757" viewBox="0 0 654 757" fill="none" xmlns="http://www.w3.org/2000/svg">
<path d="M21.2298 4.23145H631.305V120.768H615.768V291.586L616.663 549.155H632.362V623.211V652.101V708.823H338.794H20.5791V652.101V549.236H36.2783V400.961H4.55444V283.122H36.2783V120.85L21.1485 121.094V4.23145H21.2298Z" fill="#E8EAEA"/>
<path d="M554.195 392.172H522.146V548.992H554.195V557.537H467.564V548.992H513.523V360.515H522.146V383.627H554.195V392.172ZM641.313 387.859V285.157H607.068V129.15H501.24V280.843H554.276V289.388H522.227V333.659H513.604V289.551H367.431V280.843H405.825V129.069H248.425V280.843H291.456V289.551H225.487V289.47H137.961V333.659H129.42V289.47L105.017 289.388V280.843H156.263V112.061H105.017V103.516H156.263V8.30054H29.2865V116.292H44.6604V285.157H12.9365V387.859H44.6604V553.224H28.5544V641.928H247.531V557.537H105.017V548.992H129.42V392.172H105.017V383.627H225.487V392.172H137.961V548.992H291.375V557.537H361.655V548.992H440.314V557.537H405.581V641.928H623.581V553.224H606.987V387.859H641.313Z" fill="#2E4083"/>
<path d="M60.0316 180.99H97.4495V143.555H60.0316V180.99ZM101.679 185.222H55.8018V139.405H101.598V185.222H101.679Z" fill="white"/>
<path d="M74.5913 164.47H80.204V157.797L74.5913 164.47ZM83.5391 170.98H80.204V167.318H70.6055V164.633L79.9599 153.402H83.5391V164.47H85.8167V167.4H83.5391V170.98Z" fill="white"/>
<path d="M27.0065 341.553H64.4244V304.118H27.0065V341.553ZM68.6542 345.785H22.7766V299.968H68.5729V345.785H68.6542Z" fill="white"/>
<path d="M52.061 326.417C52.061 327.312 51.8983 328.126 51.4916 328.777C51.0849 329.428 50.5968 330.079 49.9461 330.486C49.2954 330.974 48.5633 331.299 47.6685 331.544C46.7737 331.788 45.8789 331.95 44.9028 331.95C43.52 331.95 42.2998 331.706 41.161 331.218C40.0222 330.73 39.0461 330.079 38.2327 329.184L40.5103 326.986C41.161 327.637 41.8931 328.126 42.6252 328.451C43.3573 328.777 44.1707 328.858 44.9842 328.858C45.4722 328.858 45.9603 328.777 46.367 328.695C46.7737 328.614 47.1804 328.37 47.5058 328.207C47.8312 327.963 48.0752 327.719 48.2379 327.393C48.4006 327.068 48.4819 326.742 48.4819 326.335C48.4819 325.521 48.2379 324.87 47.6685 324.463C47.0991 324.057 46.4483 323.894 45.5536 323.894H43.764V321.208H45.4722C45.7976 321.208 46.123 321.127 46.4483 321.045C46.7737 320.964 47.0177 320.801 47.2618 320.557C47.5058 320.313 47.6685 320.069 47.8312 319.825C47.9939 319.581 48.0752 319.255 48.0752 318.93C48.0752 318.685 47.9939 318.441 47.9125 318.197C47.8312 317.953 47.6685 317.709 47.4245 317.546C47.1804 317.302 46.8551 317.139 46.5297 317.058C46.123 316.895 45.6349 316.895 45.1468 316.895C44.4148 316.895 43.764 317.058 43.0319 317.302C42.2998 317.546 41.6491 317.953 40.9983 318.523C40.673 318.116 40.3476 317.709 40.0222 317.383C39.6968 316.976 39.3715 316.57 39.1274 316.163C39.9409 315.43 40.917 314.861 41.9745 314.454C43.0319 314.047 44.1707 313.884 45.3909 313.884C46.367 313.884 47.1804 313.965 47.9939 314.21C48.8073 314.454 49.458 314.779 50.0274 315.186C50.5968 315.593 51.0036 316.081 51.3289 316.651C51.6543 317.221 51.817 317.872 51.817 318.604C51.817 319.499 51.573 320.232 51.1663 320.883C50.7595 321.534 50.0274 322.103 49.214 322.51V322.592C49.7021 322.754 50.1088 322.917 50.5155 323.161C50.9222 323.406 51.2476 323.731 51.4916 324.057C51.7356 324.382 51.9797 324.789 52.061 325.196C51.9797 325.603 52.061 326.01 52.061 326.417Z" fill="white"/>
<path d="M44.1702 631.919H81.5881V594.484H44.1702V631.919ZM85.818 636.07H40.0217V590.252H85.818V636.07Z" fill="white"/>
<path d="M61.169 609.376H58.8101V607.016C59.7048 606.934 60.3556 606.772 60.7623 606.365C61.169 606.039 61.4944 605.551 61.6571 604.9H64.6668V622.559H61.0877V609.376H61.169Z" fill="white"/>
<path d="M59.9503 492.432H97.3682V454.997H59.9503V492.432ZM101.598 496.583H55.8018V450.766H101.598V496.583Z" fill="white"/>
<path d="M71.0955 482.342C71.1768 481.04 71.4208 479.901 71.8275 478.843C72.2343 477.866 72.8037 476.971 73.4544 476.157C74.1052 475.343 74.8372 474.692 75.6507 474.123C76.4641 473.553 77.3589 472.983 78.1723 472.414C78.6604 472.088 79.0671 471.844 79.4738 471.6C79.7992 471.356 80.1246 471.112 80.2873 470.949C80.5313 470.705 80.694 470.542 80.7753 470.298C80.8566 470.054 80.938 469.81 80.938 469.565C80.938 468.914 80.694 468.426 80.2059 468.1C79.7178 467.775 78.9858 467.531 78.091 467.531C77.3589 467.531 76.5455 467.694 75.8134 468.019C74.9999 468.345 74.2678 468.752 73.5358 469.321L71.6649 466.88C72.5596 466.066 73.6171 465.496 74.7559 465.089C75.8947 464.683 77.1149 464.52 78.335 464.52C79.3111 464.52 80.1246 464.601 80.8567 464.845C81.5887 465.089 82.3208 465.415 82.8089 465.822C83.3783 466.229 83.785 466.717 84.1104 467.368C84.4358 467.938 84.5984 468.67 84.5984 469.403C84.5984 469.972 84.5171 470.542 84.3544 471.03C84.1917 471.518 83.9477 472.007 83.541 472.414C83.2156 472.821 82.7275 473.227 82.1581 473.634C81.5887 474.041 80.938 474.448 80.1246 474.855C79.3111 475.262 78.6604 475.669 78.1723 476.076C77.6029 476.483 77.1962 476.808 76.8708 477.134C76.5455 477.459 76.2201 477.785 76.0574 478.192C75.8947 478.517 75.732 478.924 75.5693 479.412H84.7611V482.423H71.0955V482.342Z" fill="white"/>
<path d="M148.046 341.228H185.464V303.793H148.046V341.228ZM189.693 345.46H143.897V299.643H189.693V345.46Z" fill="white"/>
<path d="M170.413 324.301C170.413 323.406 170.088 322.673 169.437 322.185C168.787 321.697 167.892 321.452 166.834 321.452C165.696 321.452 164.719 321.697 164.069 322.266C163.418 322.755 163.093 323.487 163.093 324.301C163.093 324.708 163.174 325.033 163.337 325.44C163.499 325.766 163.743 326.091 163.987 326.335C164.313 326.579 164.638 326.824 165.126 326.986C165.614 327.149 166.102 327.231 166.672 327.231C167.892 327.231 168.787 326.986 169.437 326.417C170.088 325.928 170.413 325.196 170.413 324.301ZM173.911 324.138C173.911 325.115 173.749 326.01 173.342 326.742C173.016 327.475 172.447 328.126 171.796 328.614C171.146 329.102 170.332 329.509 169.437 329.753C168.543 329.997 167.566 330.16 166.428 330.16C165.452 330.16 164.475 329.997 163.662 329.753C162.849 329.509 162.035 329.021 161.466 328.451C160.815 327.882 160.327 327.149 160.002 326.254C159.676 325.359 159.432 324.301 159.432 323.08C159.432 322.348 159.513 321.534 159.676 320.72C159.839 319.906 160.083 319.092 160.49 318.279C160.896 317.465 161.384 316.732 161.954 316C162.523 315.268 163.255 314.617 164.15 314.047C165.045 313.477 166.021 313.07 167.241 312.663C168.38 312.338 169.763 312.094 171.227 312.094V315.105C170.251 315.186 169.275 315.268 168.543 315.43C167.729 315.593 166.997 315.919 166.428 316.244C165.777 316.651 165.208 317.139 164.801 317.709C164.313 318.279 163.906 319.011 163.581 319.825H163.662C164.231 319.418 164.882 319.092 165.533 318.93C166.184 318.767 166.916 318.686 167.648 318.686C168.461 318.686 169.275 318.767 170.088 319.011C170.82 319.255 171.471 319.581 172.122 320.069C172.691 320.557 173.179 321.127 173.505 321.778C173.749 322.429 173.911 323.243 173.911 324.138Z" fill="white"/>
<path d="M44.3323 64.3718H81.7503V26.9368H44.3323V64.3718ZM85.9801 68.6035H40.1838V22.7864H85.9801V68.6035Z" fill="white"/>
<path d="M70.5243 47.8517C70.5243 48.9096 70.3616 49.8048 69.9549 50.6186C69.6295 51.4324 69.0601 52.0835 68.4094 52.5717C67.7586 53.06 66.9452 53.4669 66.0504 53.7111C65.1556 53.9552 64.0982 54.118 63.0407 54.118C61.8206 54.118 60.6818 53.9552 59.6243 53.7111C58.5668 53.3855 57.5094 52.9786 56.4519 52.3276L57.9161 49.642C58.7295 50.1303 59.6243 50.4558 60.5191 50.7C61.4138 50.9441 62.2273 51.1069 63.0407 51.1069C64.2609 51.1069 65.1556 50.8627 65.8877 50.2931C66.6198 49.8048 66.9452 48.991 66.9452 47.9331C66.9452 46.9565 66.6198 46.3054 65.9691 45.8172C65.3183 45.3289 64.5862 45.1661 63.6101 45.1661C62.9594 45.1661 62.39 45.2475 61.8206 45.4916C61.2512 45.7358 60.6817 45.9799 60.1937 46.3054L57.0213 45.1661L57.6721 36.2957H69.3041V39.3067H60.6818L60.3564 43.0502C60.3564 43.0502 60.3564 43.0502 60.4377 43.0502C61.5765 42.4806 62.7967 42.2364 64.0168 42.2364C64.993 42.2364 65.8877 42.3992 66.7012 42.6433C67.5146 42.8875 68.1653 43.2944 68.7347 43.7826C69.3041 44.2709 69.7109 44.8406 69.9549 45.573C70.3616 46.2241 70.5243 47.0379 70.5243 47.8517Z" fill="white"/>
<path d="M148.126 443.849H185.382V406.495H148.126V443.849ZM189.693 448.081H143.815V402.182H189.693V448.081Z" fill="white"/>
<path d="M156.911 421.144H154.47V418.784C155.365 418.702 156.097 418.54 156.504 418.133C156.911 417.807 157.236 417.237 157.48 416.586H160.571V434.572H156.992V421.144H156.911Z" fill="white"/>
<path d="M168.623 427.898H174.398V421.062L168.623 427.898ZM177.733 434.572H174.317V430.828H164.556V428.061L174.154 416.586H177.733V427.898H180.092V430.828H177.733V434.572Z" fill="white"/>
<path d="M556.469 180.99H593.887V143.555H556.469V180.99ZM598.117 185.222H552.32V139.405H598.117V185.222Z" fill="white"/>
<path d="M566.883 157.96H564.524V155.6C565.418 155.518 566.069 155.355 566.476 154.948C566.883 154.623 567.208 154.135 567.371 153.484H570.38V171.143H566.801V157.96H566.883Z" fill="white"/>
<path d="M579.896 157.96H577.537V155.6C578.432 155.518 579.083 155.355 579.49 154.948C579.896 154.623 580.222 154.135 580.384 153.484H583.394V171.143H579.815V157.96H579.896Z" fill="white"/>
<path d="M590.471 340.414H627.076V303.793H590.471V340.414ZM631.224 344.646H586.241V299.643H631.224V344.646Z" fill="white"/>
<path d="M598.036 317.384H595.677V315.024C596.572 314.942 597.223 314.779 597.63 314.373C598.036 314.047 598.362 313.559 598.525 312.908H601.534V330.486H597.955V317.384H598.036Z" fill="white"/>
<path d="M613.736 315.838C612.354 315.838 611.377 316.407 610.645 317.465C609.913 318.523 609.588 319.988 609.588 321.778C609.588 322.674 609.669 323.487 609.832 324.22C609.995 324.952 610.239 325.603 610.645 326.091C610.971 326.661 611.377 327.068 611.947 327.312C612.435 327.556 613.086 327.719 613.736 327.719C614.387 327.719 615.038 327.556 615.526 327.312C616.014 326.987 616.502 326.58 616.827 326.091C617.153 325.603 617.478 324.952 617.641 324.22C617.804 323.487 617.885 322.674 617.885 321.778C617.885 319.907 617.56 318.523 616.827 317.384C616.177 316.326 615.119 315.838 613.736 315.838ZM613.736 330.893C612.435 330.893 611.296 330.649 610.401 330.161C609.425 329.672 608.612 329.021 607.961 328.207C607.31 327.394 606.822 326.417 606.497 325.359C606.171 324.22 606.009 323.08 606.009 321.86C606.009 320.639 606.171 319.5 606.497 318.36C606.822 317.221 607.31 316.326 607.961 315.431C608.612 314.617 609.425 313.966 610.401 313.478C611.377 312.989 612.516 312.745 613.736 312.745C614.875 312.745 615.933 312.989 616.909 313.396C617.885 313.803 618.698 314.454 619.349 315.268C620 316.082 620.569 317.058 620.976 318.116C621.383 319.256 621.545 320.476 621.545 321.778C621.545 323.162 621.383 324.382 620.976 325.44C620.569 326.58 620.081 327.475 619.349 328.289C618.698 329.103 617.804 329.754 616.909 330.161C616.014 330.649 614.957 330.893 613.736 330.893Z" fill="white"/>
<path d="M461.298 340.414H497.902V303.793H461.298V340.414ZM502.051 344.646H457.068V299.643H502.051V344.646Z" fill="white"/>
<path d="M556.469 492.189H593.887V454.754H556.469V492.189ZM598.117 496.339H552.32V450.522H598.117V496.339Z" fill="white"/>
<path d="M578.188 469.809C578.188 469.402 578.107 469.076 577.944 468.669C577.782 468.344 577.538 468.018 577.294 467.774C577.05 467.53 576.643 467.286 576.155 467.123C575.667 466.96 575.179 466.879 574.528 466.879C573.308 466.879 572.413 467.123 571.762 467.693C571.111 468.263 570.786 468.914 570.786 469.809C570.786 470.704 571.111 471.436 571.762 471.925C572.413 472.413 573.308 472.657 574.365 472.657C575.585 472.657 576.48 472.413 577.131 471.843C577.863 471.355 578.188 470.623 578.188 469.809ZM581.686 471.111C581.686 472.25 581.523 473.471 581.117 474.773C580.71 475.994 580.059 477.214 579.165 478.272C578.27 479.33 577.05 480.226 575.504 480.958C573.959 481.69 572.088 482.097 569.81 482.179V479.168C570.786 479.168 571.762 479.005 572.494 478.842C573.308 478.679 574.04 478.354 574.609 478.028C575.26 477.621 575.748 477.214 576.236 476.563C576.724 475.994 577.131 475.261 577.456 474.447L577.375 474.366C576.724 474.854 576.073 475.099 575.423 475.261C574.772 475.424 574.04 475.505 573.389 475.505C572.576 475.505 571.762 475.424 570.949 475.18C570.217 474.936 569.566 474.61 568.997 474.203C568.427 473.715 568.02 473.145 567.695 472.494C567.37 471.843 567.207 471.029 567.207 470.053C567.207 469.076 567.37 468.181 567.776 467.449C568.102 466.716 568.671 466.065 569.322 465.577C569.973 465.089 570.786 464.682 571.681 464.438C572.576 464.194 573.552 464.031 574.691 464.031C575.667 464.031 576.643 464.194 577.456 464.438C578.351 464.682 579.083 465.17 579.653 465.74C580.303 466.309 580.791 467.042 581.117 467.937C581.523 468.751 581.686 469.809 581.686 471.111Z" fill="white"/>
<path d="M572.087 631.919H609.505V594.484H572.087V631.919ZM613.735 636.07H567.938V590.252H613.735V636.07Z" fill="white"/>
<path d="M593.643 608.644C593.643 607.993 593.399 607.504 592.911 607.016C592.423 606.528 591.61 606.284 590.471 606.284C589.413 606.284 588.6 606.528 588.112 606.935C587.624 607.423 587.38 607.911 587.38 608.562C587.38 609.213 587.624 609.783 588.193 610.19C588.763 610.597 589.495 610.841 590.471 610.841C591.447 610.841 592.26 610.597 592.748 610.19C593.399 609.702 593.643 609.213 593.643 608.644ZM594.457 616.131C594.457 615.236 594.131 614.585 593.481 614.096C592.83 613.608 591.854 613.364 590.552 613.364C589.332 613.364 588.437 613.608 587.705 614.096C587.054 614.585 586.648 615.236 586.648 616.049C586.648 616.945 586.973 617.596 587.624 618.084C588.275 618.572 589.251 618.816 590.471 618.816C591.772 618.816 592.748 618.572 593.399 618.084C594.131 617.596 594.457 616.945 594.457 616.131ZM597.954 616.212C597.954 618.003 597.304 619.305 596.002 620.281C594.701 621.258 592.911 621.665 590.552 621.665C588.193 621.665 586.404 621.176 585.102 620.281C583.801 619.305 583.15 618.003 583.15 616.212C583.15 615.317 583.394 614.422 583.963 613.689C584.451 612.876 585.265 612.306 586.241 611.98C585.753 611.818 585.428 611.574 585.102 611.248C584.777 611.004 584.533 610.678 584.37 610.353C584.207 610.027 584.045 609.702 584.045 609.458C583.963 609.132 583.963 608.888 583.963 608.562C583.963 607.749 584.126 607.016 584.451 606.365C584.777 605.714 585.265 605.226 585.834 604.819C586.404 604.412 587.136 604.087 587.949 603.842C588.763 603.598 589.657 603.517 590.552 603.517C591.447 603.517 592.342 603.598 593.074 603.842C593.887 604.087 594.538 604.331 595.189 604.819C595.758 605.226 596.246 605.714 596.572 606.365C596.897 607.016 597.06 607.749 597.06 608.562C597.06 608.807 597.06 609.132 596.978 609.376C596.897 609.702 596.816 610.027 596.572 610.271C596.409 610.597 596.165 610.841 595.839 611.167C595.514 611.492 595.189 611.736 594.701 611.899C595.677 612.225 596.49 612.794 596.978 613.608C597.71 614.34 597.954 615.236 597.954 616.212Z" fill="white"/>
<path d="M328.382 740.562H325.616V714.195H328.382V740.562Z" fill="#2E4083"/>
<path d="M338.144 723.146L336.11 725.018L326.918 715.171L317.726 725.018L315.693 723.146L326.837 711.183L338.144 723.146Z" fill="#2E4083"/>
<path d="M628.134 650.311H349.126V641.766H619.593V562.095H603.893V388.103H636.919V293.946H603.893V107.992H619.755V17.0901H33.7584V107.992H50.0271V293.946H17.083V388.103H50.0271V562.013H34.3278V641.766H305.038V650.311H25.7868V553.55H41.486V396.73H8.54199V285.401H41.5674V116.537H25.2987V8.54517H628.378V116.537H612.516V285.401H645.541V396.648H612.516V553.55H628.215V650.311H628.134Z" fill="#E8EAEA"/>
<path d="M654 405.193V276.856H620.975V125.082H636.837V0H16.6754V125.082H32.944V276.856H0V405.193H32.944V544.923H17.2448V708.905H291.616V700.36H25.7858V658.856H291.616V650.311H25.7858V553.549H41.4851V396.729H8.54104V285.401H41.5664V116.537H25.2978V8.54494H628.377V116.537H612.515V285.401H645.54V396.648H612.515V553.549H628.214V650.311H361.896V658.856H628.133V700.441H361.896V708.986H636.674V545.004H620.975V405.193H654Z" fill="#959C9D"/>
<path d="M308.616 180.99H346.034V143.555H308.616V180.99ZM350.264 185.222H304.468V139.405H350.264V185.222Z" fill="white"/>
<path d="M324.155 171.143C324.155 168.376 324.643 165.691 325.619 163.168C326.514 160.645 327.897 158.366 329.686 156.495H320.413V153.484H333.672V156.413C331.801 158.366 330.337 160.482 329.28 162.924C328.222 165.365 327.653 168.051 327.653 171.143H324.155Z" fill="white"/>
<path d="M148.045 492.433H185.463V454.998H148.045V492.433ZM189.693 496.583H143.815V450.685H189.693V496.583Z" fill="white"/>
<path d="M167.649 477.133C167.649 478.028 167.486 478.76 167.08 479.493C166.673 480.144 166.185 480.795 165.534 481.202C164.883 481.69 164.151 482.016 163.256 482.26C162.362 482.504 161.467 482.667 160.491 482.667C159.108 482.667 157.888 482.423 156.749 481.934C155.61 481.446 154.634 480.795 153.821 479.9L156.098 477.703C156.749 478.354 157.481 478.842 158.213 479.167C158.945 479.493 159.759 479.574 160.572 479.574C161.06 479.574 161.548 479.493 161.955 479.412C162.362 479.33 162.768 479.086 163.094 478.923C163.419 478.679 163.663 478.435 163.826 478.109C163.988 477.784 164.07 477.458 164.07 477.051C164.07 476.238 163.826 475.587 163.256 475.18C162.768 474.773 162.036 474.529 161.141 474.529H159.352V471.843H161.06C161.385 471.843 161.711 471.762 162.036 471.68C162.362 471.599 162.606 471.436 162.85 471.192C163.094 470.948 163.256 470.704 163.419 470.46C163.582 470.216 163.663 469.89 163.663 469.565C163.663 469.32 163.582 469.076 163.5 468.832C163.419 468.588 163.256 468.344 163.012 468.181C162.768 467.937 162.443 467.774 162.036 467.693C161.63 467.53 161.141 467.53 160.653 467.53C159.921 467.53 159.271 467.693 158.538 467.937C157.806 468.181 157.156 468.588 156.505 469.158C156.18 468.751 155.854 468.344 155.529 467.937C155.203 467.53 154.878 467.123 154.634 466.716C155.447 465.984 156.424 465.414 157.481 465.007C158.538 464.6 159.677 464.438 160.897 464.438C161.874 464.438 162.687 464.519 163.5 464.763C164.314 465.007 164.965 465.333 165.534 465.74C166.103 466.147 166.51 466.635 166.835 467.204C167.161 467.774 167.324 468.425 167.324 469.158C167.324 470.053 167.08 470.785 166.673 471.436C166.266 472.087 165.534 472.657 164.721 473.064V473.145C165.209 473.308 165.615 473.471 166.022 473.715C166.429 473.959 166.754 474.285 166.998 474.61C167.242 474.936 167.486 475.342 167.568 475.749C167.568 476.319 167.649 476.726 167.649 477.133Z" fill="white"/>
<path d="M173.668 469.24H171.309V466.88C172.203 466.798 172.854 466.635 173.261 466.229C173.668 465.903 173.993 465.415 174.156 464.764H177.165V482.342H173.586V469.24H173.668Z" fill="white"/>
<path d="M114.776 678.631C114.776 675.457 112.254 672.935 109.081 672.935C105.909 672.935 103.387 675.457 103.387 678.631C103.387 681.805 105.909 684.328 109.081 684.328C112.254 684.328 114.776 681.805 114.776 678.631Z" fill="#BCC1C2"/>
<path d="M140.398 678.631C140.398 675.457 137.876 672.935 134.704 672.935C131.531 672.935 129.01 675.457 129.01 678.631C129.01 681.805 131.531 684.328 134.704 684.328C137.876 684.328 140.398 681.805 140.398 678.631Z" fill="#BCC1C2"/>
<path d="M166.022 678.631C166.022 675.457 163.5 672.935 160.328 672.935C157.155 672.935 154.634 675.457 154.634 678.631C154.634 681.805 157.155 684.328 160.328 684.328C163.5 684.328 166.022 681.805 166.022 678.631Z" fill="#BCC1C2"/>
<path d="M89.1534 678.631C89.1534 675.457 86.6318 672.935 83.4594 672.935C80.287 672.935 77.7654 675.457 77.7654 678.631C77.7654 681.805 80.287 684.328 83.4594 684.328C86.6318 684.328 89.1534 681.805 89.1534 678.631Z" fill="#BCC1C2"/>
<path d="M191.643 678.631C191.643 675.457 189.121 672.935 185.949 672.935C182.776 672.935 180.255 675.457 180.255 678.631C180.255 681.805 182.776 684.328 185.949 684.328C189.121 684.328 191.643 681.805 191.643 678.631Z" fill="#BCC1C2"/>
<path d="M217.269 678.631C217.269 675.457 214.747 672.935 211.575 672.935C208.402 672.935 205.881 675.457 205.881 678.631C205.881 681.805 208.402 684.328 211.575 684.328C214.747 684.328 217.269 681.805 217.269 678.631Z" fill="#BCC1C2"/>
<path d="M62.5531 678.631C62.5531 675.457 60.0315 672.935 56.8591 672.935C53.6867 672.935 51.165 675.457 51.165 678.631C51.165 681.805 53.6867 684.328 56.8591 684.328C60.0315 684.328 62.5531 681.805 62.5531 678.631Z" fill="#BCC1C2"/>
<path d="M242.893 678.631C242.893 675.457 240.371 672.935 237.199 672.935C234.026 672.935 231.505 675.457 231.505 678.631C231.505 681.805 234.026 684.328 237.199 684.328C240.371 684.328 242.893 681.805 242.893 678.631Z" fill="#BCC1C2"/>
<path d="M267.699 751.303C267.699 748.129 265.177 745.607 262.005 745.607C258.832 745.607 256.311 748.129 256.311 751.303C256.311 754.477 258.832 757 262.005 757C265.177 757 267.699 754.477 267.699 751.303Z" fill="#BCC1C2"/>
<path d="M267.699 725.913C267.699 722.74 265.177 720.217 262.005 720.217C258.832 720.217 256.311 722.74 256.311 725.913C256.311 729.087 258.832 731.61 262.005 731.61C265.177 731.61 267.699 729.006 267.699 725.913Z" fill="#BCC1C2"/>
<path d="M398.339 725.913C398.339 722.74 395.817 720.217 392.644 720.217C389.472 720.217 386.95 722.74 386.95 725.913C386.95 729.087 389.472 731.61 392.644 731.61C395.736 731.61 398.339 729.006 398.339 725.913Z" fill="#BCC1C2"/>
<path d="M294.218 751.303C294.218 748.129 291.696 745.607 288.524 745.607C285.352 745.607 282.83 748.129 282.83 751.303C282.83 754.477 285.352 757 288.524 757C291.696 757 294.218 754.477 294.218 751.303Z" fill="#BCC1C2"/>
<path d="M319.842 751.303C319.842 748.129 317.321 745.607 314.148 745.607C310.976 745.607 308.454 748.129 308.454 751.303C308.454 754.477 310.976 757 314.148 757C317.321 757 319.842 754.477 319.842 751.303Z" fill="#BCC1C2"/>
<path d="M345.465 751.303C345.465 748.129 342.944 745.607 339.771 745.607C336.599 745.607 334.077 748.129 334.077 751.303C334.077 754.477 336.599 757 339.771 757C342.944 757 345.465 754.477 345.465 751.303Z" fill="#BCC1C2"/>
<path d="M371.088 751.303C371.088 748.129 368.567 745.607 365.394 745.607C362.222 745.607 359.7 748.129 359.7 751.303C359.7 754.477 362.222 757 365.394 757C368.567 757 371.088 754.477 371.088 751.303Z" fill="#BCC1C2"/>
<path d="M398.339 751.303C398.339 748.129 395.817 745.607 392.644 745.607C389.472 745.607 386.95 748.129 386.95 751.303C386.95 754.477 389.472 757 392.644 757C395.736 757 398.339 754.477 398.339 751.303Z" fill="#BCC1C2"/>
<path d="M473.498 678.631C473.498 675.457 470.977 672.935 467.804 672.935C464.632 672.935 462.11 675.457 462.11 678.631C462.11 681.805 464.632 684.328 467.804 684.328C470.895 684.328 473.498 681.805 473.498 678.631Z" fill="#BCC1C2"/>
<path d="M499.122 678.631C499.122 675.457 496.6 672.935 493.428 672.935C490.255 672.935 487.734 675.457 487.734 678.631C487.734 681.805 490.255 684.328 493.428 684.328C496.519 684.328 499.122 681.805 499.122 678.631Z" fill="#BCC1C2"/>
<path d="M524.746 678.631C524.746 675.457 522.224 672.935 519.052 672.935C515.879 672.935 513.358 675.457 513.358 678.631C513.358 681.805 515.879 684.328 519.052 684.328C522.143 684.328 524.746 681.805 524.746 678.631Z" fill="#BCC1C2"/>
<path d="M447.875 678.631C447.875 675.457 445.354 672.935 442.181 672.935C439.009 672.935 436.487 675.457 436.487 678.631C436.487 681.805 439.009 684.328 442.181 684.328C445.272 684.328 447.875 681.805 447.875 678.631Z" fill="#BCC1C2"/>
<path d="M550.369 678.631C550.369 675.457 547.847 672.935 544.675 672.935C541.502 672.935 538.981 675.457 538.981 678.631C538.981 681.805 541.502 684.328 544.675 684.328C547.766 684.328 550.369 681.805 550.369 678.631Z" fill="#BCC1C2"/>
<path d="M575.992 678.631C575.992 675.457 573.47 672.935 570.298 672.935C567.125 672.935 564.604 675.457 564.604 678.631C564.604 681.805 567.125 684.328 570.298 684.328C573.389 684.328 575.992 681.805 575.992 678.631Z" fill="#BCC1C2"/>
<path d="M421.278 678.631C421.278 675.457 418.757 672.935 415.584 672.935C412.412 672.935 409.89 675.457 409.89 678.631C409.89 681.805 412.412 684.328 415.584 684.328C418.675 684.328 421.278 681.805 421.278 678.631Z" fill="#BCC1C2"/>
<path d="M601.614 678.631C601.614 675.457 599.092 672.935 595.92 672.935C592.747 672.935 590.226 675.457 590.226 678.631C590.226 681.805 592.747 684.328 595.92 684.328C599.011 684.328 601.614 681.805 601.614 678.631Z" fill="#BCC1C2"/>
<path d="M78.0904 293.946H48.0747V285.401H78.0904V293.946Z" fill="#E8EAEA"/>
<path d="M78.0904 116.537H48.0747V107.992H78.0904V116.537Z" fill="#E8EAEA"/>
<path d="M78.0904 396.73H48.0747V388.185H78.0904V396.73Z" fill="#E8EAEA"/>
<path d="M78.0904 562.094H48.0747V553.549H78.0904V562.094Z" fill="#E8EAEA"/>
<path d="M138.203 395.021H129.662V364.991H138.203V395.021Z" fill="#E8EAEA"/>
<path d="M135.191 396.73H105.176V388.185H135.191V396.73Z" fill="#E8EAEA"/>
<path d="M611.619 562.094H581.604V553.549H611.619V562.094Z" fill="#E8EAEA"/>
<path d="M611.619 396.73H581.604V388.185H611.619V396.73Z" fill="#E8EAEA"/>
<path d="M611.619 293.946H581.604V285.401H611.619V293.946Z" fill="#E8EAEA"/>
<path d="M397.525 641.359H362.14V605.958H397.525V641.359Z" fill="white"/>
<path d="M378.49 619.793H381.419V630.942H378.49V619.793ZM378.246 616.701C378.246 616.212 378.409 615.806 378.734 615.48C379.06 615.154 379.466 614.992 379.955 614.992C380.443 614.992 380.768 615.154 381.175 615.48C381.5 615.806 381.663 616.212 381.663 616.701C381.663 617.189 381.5 617.515 381.175 617.921C380.849 618.247 380.443 618.41 379.955 618.41C379.466 618.41 379.06 618.247 378.734 617.921C378.409 617.596 378.246 617.189 378.246 616.701Z" fill="#2E4083"/>
<path d="M379.793 611.736C373.205 611.736 367.836 617.107 367.836 623.699C367.836 630.291 373.205 635.662 379.793 635.662C386.382 635.662 391.751 630.291 391.751 623.699C391.751 617.107 386.382 611.736 379.793 611.736ZM379.793 637.696C372.066 637.696 365.721 631.349 365.721 623.617C365.721 615.886 372.066 609.539 379.793 609.539C387.521 609.539 393.866 615.886 393.866 623.617C393.866 631.43 387.602 637.696 379.793 637.696Z" fill="#2E4083"/>
<path d="M291.614 641.358H255.905V605.632H291.614V641.358Z" fill="white"/>
<path d="M263.065 629.966H284.459V627.931C282.913 627.036 281.937 625.327 281.937 623.537C281.937 621.665 282.913 620.038 284.459 619.142V616.864H263.065V619.142C264.611 620.038 265.587 621.747 265.587 623.618C265.587 625.49 264.611 627.118 263.065 628.094V629.966ZM286.899 632.407H260.706V626.385L261.438 626.06C262.496 625.653 263.228 624.595 263.228 623.455C263.228 622.316 262.496 621.34 261.438 620.851L260.706 620.526V614.26H286.899V620.444L286.167 620.77C285.109 621.177 284.459 622.235 284.459 623.293C284.459 624.351 285.109 625.409 286.167 625.816L286.899 626.141V632.407Z" fill="#2E4083"/>
<path d="M277.217 619.468C277.217 618.898 277.706 618.41 278.275 618.41C278.845 618.41 279.333 618.898 279.333 619.468C279.333 620.038 278.845 620.526 278.275 620.526C277.706 620.526 277.217 620.119 277.217 619.468ZM277.217 623.374C277.217 622.804 277.706 622.316 278.275 622.316C278.845 622.316 279.333 622.804 279.333 623.374C279.333 623.944 278.845 624.432 278.275 624.432C277.706 624.432 277.217 623.944 277.217 623.374ZM277.217 627.28C277.217 626.711 277.706 626.222 278.275 626.222C278.845 626.222 279.333 626.711 279.333 627.28C279.333 627.85 278.845 628.338 278.275 628.338C277.706 628.338 277.217 627.85 277.217 627.28Z" fill="#2E4083"/>
<path d="M306.093 507.814H347.822V513.266H306.093V507.814ZM306.093 413.494H347.822V418.54H306.093V413.494ZM306.093 421.388H347.822V426.434H306.093V421.388ZM306.093 429.282H347.822V434.327H306.093V429.282ZM306.093 437.094H347.822V442.14H306.093V437.094ZM306.093 444.988H347.822V450.034H306.093V444.988ZM306.093 452.801H347.822V457.846H306.093V452.801ZM306.093 460.695H347.822V465.74H306.093V460.695ZM306.093 468.589H347.822V473.634H306.093V468.589ZM306.093 476.401H347.822V481.447H306.093V476.401ZM306.093 484.295H347.822V489.341H306.093V484.295ZM347.904 504.966H306.175V499.92H347.904V504.966ZM306.093 492.107H347.822V497.153H306.093V492.107ZM347.904 410.646H306.175V405.03H347.904V410.646ZM303.246 516.115H350.669V402.182H303.246V516.115Z" fill="white"/>
<path d="M467.48 442.954H504.085V406.414H467.48V442.954ZM508.233 447.186H463.25V402.182H508.233V447.186Z" fill="white"/>
<path d="M476.022 420.33H473.663V417.97C474.558 417.888 475.208 417.644 475.615 417.319C476.022 416.993 476.347 416.505 476.51 415.854H479.52V433.513H475.94V420.33H476.022Z" fill="white"/>
<path d="M498.798 427.491C498.798 428.549 498.636 429.444 498.229 430.258C497.904 431.072 497.334 431.723 496.684 432.211C496.033 432.7 495.219 433.107 494.325 433.351C493.43 433.595 492.372 433.758 491.315 433.758C490.095 433.758 488.956 433.595 487.898 433.351C486.841 433.025 485.784 432.618 484.726 431.967L486.19 429.282C487.004 429.77 487.898 430.096 488.793 430.34C489.688 430.584 490.501 430.747 491.315 430.747C492.535 430.747 493.43 430.502 494.162 429.933C494.894 429.444 495.219 428.631 495.219 427.573C495.219 426.596 494.894 425.945 494.243 425.457C493.593 424.969 492.86 424.806 491.884 424.806C491.234 424.806 490.664 424.887 490.013 425.131C489.444 425.375 488.875 425.62 488.387 425.945L485.214 424.806L485.865 415.935H497.497V418.946H488.875L488.549 422.69C488.549 422.69 488.549 422.69 488.631 422.69C489.769 422.12 490.99 421.876 492.21 421.876C493.186 421.876 494.081 422.039 494.894 422.283C495.707 422.527 496.358 422.934 496.928 423.422C497.497 423.911 497.904 424.48 498.148 425.213C498.636 425.864 498.798 426.596 498.798 427.491Z" fill="white"/>
<path d="M397.686 545.493H361.977V509.767H397.686V545.493Z" fill="white"/>
<path d="M384.917 520.265C382.883 520.265 381.093 521.73 380.28 522.543V535.727C381.175 535.076 383.046 533.855 384.835 533.855C386.299 533.855 389.553 533.774 389.553 533.774C389.553 533.774 390.285 533.692 390.285 533.123C390.285 532.228 390.285 520.183 390.285 520.183C390.285 520.183 386.055 520.265 384.917 520.265ZM379.385 522.543C378.572 521.73 376.782 520.265 374.667 520.265C372.634 520.265 369.217 520.265 369.217 520.265C369.217 520.265 369.217 532.472 369.217 533.204C369.217 533.774 369.949 533.855 369.949 533.855C369.949 533.855 372.308 533.774 374.505 533.774C376.213 533.774 378.409 535.157 379.304 535.808V522.543H379.385ZM393.214 536.785L383.696 536.866C383.696 536.866 381.5 537.761 379.955 537.761C378.409 537.761 376.701 536.866 376.701 536.866L366.533 536.785V521.241H367.428C367.428 519.532 367.428 518.312 367.428 518.312C367.428 518.312 371.495 518.393 374.667 518.393C377.514 518.393 379.873 520.753 379.873 520.753C379.873 520.753 382.232 518.393 384.998 518.393H392.237C392.237 518.393 392.237 519.532 392.237 521.16H393.214V536.785Z" fill="#2E4083"/>
<path d="M515.553 396.73H426.238V388.185H515.635V396.73H515.553Z" fill="#E8EAEA"/>
<path d="M362.14 641.44H291.615V553.549H362.14V641.44Z" fill="#2E4083"/>
<path d="M271.524 493.653H268.677V404.949H271.524V493.653ZM252.815 404.867H255.662V493.572H252.815V404.867ZM260.705 404.867H263.552V493.572H260.705V404.867ZM240.939 402.019V402.263V404.867V493.572V495.932V496.42H276.649V495.932V493.653V404.949V402.345V402.1H240.939V402.019Z" fill="white"/>
<path d="M472.525 495.282H508.234" stroke="white" stroke-width="1.047" stroke-miterlimit="10"/>
<path d="M255.825 563.071H291.534V596.762H255.825V563.071Z" fill="white"/>
<path d="M256.558 597.82V563.071H270.061V597.82H256.558Z" fill="#2E4083"/>
<path d="M273.395 563.234H276.242V598.064H273.395V563.234Z" fill="#2E4083"/>
<path d="M279.661 563.234H282.508V598.064H279.661V563.234Z" fill="#2E4083"/>
<path d="M285.676 563.234H288.523V598.064H285.676V563.234Z" fill="#2E4083"/>
<path d="M291.453 564.943H255.825V562.094H291.453V564.943Z" fill="white"/>
<path d="M291.533 598.228H255.905V595.379H291.533V598.228Z" fill="white"/>
<path d="M258.752 597.821H255.905V562.176H258.752V597.821Z" fill="white"/>
<path d="M397.767 597.169H362.058V563.478H397.767V597.169Z" fill="white"/>
<path d="M397.118 562.42V597.17H383.615V562.42H397.118Z" fill="#2E4083"/>
<path d="M380.198 597.088H377.351V562.258H380.198V597.088Z" fill="#2E4083"/>
<path d="M374.016 597.088H371.169V562.258H374.016V597.088Z" fill="#2E4083"/>
<path d="M367.915 597.088H365.068V562.258H367.915V597.088Z" fill="#2E4083"/>
<path d="M362.058 595.379H397.767V598.228H362.058V595.379Z" fill="white"/>
<path d="M362.058 562.094H397.686V564.943H362.058V562.094Z" fill="white"/>
<path d="M394.921 562.42H397.768V598.065H394.921V562.42Z" fill="white"/>
<path d="M507.421 461.752V494.549H473.745V461.752H507.421Z" fill="#2E4083"/>
<path d="M472.443 478.679H507.258V481.528H472.443V478.679Z" fill="white"/>
<path d="M472.443 472.983H507.258V475.832H472.443V472.983Z" fill="white"/>
<path d="M472.443 484.865H507.258V487.713H472.443V484.865Z" fill="white"/>
<path d="M472.443 490.968H507.258V493.816H472.443V490.968Z" fill="white"/>
<path d="M505.63 461.101H508.477V496.746H505.63V461.101Z" fill="white"/>
<path d="M472.36 461.183H475.207V496.746H472.36V461.183Z" fill="white"/>
<path d="M472.687 461.183H508.315V464.031H472.687V461.183Z" fill="white"/>
<path d="M472.687 493.653H508.315V496.746H472.687V493.653Z" fill="white"/>
<path d="M349.613 412.029H304.386V403.484H349.613V412.029Z" fill="white"/>
<path d="M357.017 641.359H321.633V605.958H357.017V641.359Z" fill="white"/>
<path d="M339.364 611.736C332.776 611.736 327.407 617.107 327.407 623.699C327.407 630.291 332.776 635.662 339.364 635.662C345.953 635.662 351.322 630.291 351.322 623.699C351.241 617.107 345.953 611.736 339.364 611.736ZM339.364 637.696C331.637 637.696 325.292 631.349 325.292 623.617C325.292 615.886 331.637 609.539 339.364 609.539C347.092 609.539 353.437 615.886 353.437 623.617C353.437 631.43 347.092 637.696 339.364 637.696Z" fill="#2E4083"/>
<path d="M335.297 616.619H345.221V619.141H338.144V622.315H343.188V624.838H338.144V630.779H335.297V616.619Z" fill="#2E4083"/>
<path d="M225.728 338.217H217.106V291.179H225.728V338.217Z" fill="#E8EAEA"/>
<path d="M225.728 395.753H217.106V364.991H225.728V395.753Z" fill="#E8EAEA"/>
<path d="M479.845 329.428H475.452V315.024H479.845C482.041 315.024 483.749 315.593 484.888 316.814C486.027 318.035 486.596 319.825 486.596 322.267C486.596 324.464 486.027 326.254 484.888 327.556C483.668 328.777 482.041 329.428 479.845 329.428ZM487.735 314.21C485.945 312.257 483.342 311.28 479.926 311.28H471.548V333.009H479.601C483.098 333.009 485.864 332.032 487.654 330.079C489.443 328.207 490.419 325.522 490.419 322.104C490.419 318.849 489.524 316.163 487.735 314.21Z" fill="white"/>
</svg>
