<svg width="630" height="732" viewBox="0 0 630 732" fill="none" xmlns="http://www.w3.org/2000/svg">
<path d="M20.7462 4.18066H608.323V116.451H592.685V272.546L585.795 536.963L608.633 537.118V600.299V628.096V682.915H394.117V727.978H234.101V682.915H19.3528V628.096V541.841H34.526V386.211H3.94727V272.779H34.526V116.451L20.7462 116.684V4.18066Z" fill="#DCDFE0"/>
<path d="M532.149 112.349H482.526V274.948H532.149V283.155H97.0017V274.948H146.237V112.349H97.0017V104.141H146.237V104.064H482.526V104.141H532.149V112.349ZM503.196 533.016V541.223V590.932H494.99V541.223H389.861V590.932H381.5V332.477H389.861V436.23H494.99V381.257H503.196V533.016ZM238.206 590.932V541.223H133.154V590.932H124.948V541.223H97.0791V533.016H124.948V382.031H97.0791V373.823H238.283V332.477H246.489V590.932H238.206ZM619.55 377.927V279.051H586.572V108.245H602.751V12.3892H28.722V108.245H42.734V279.051H12.1553V377.927H42.734V536.964H27.2511V673.083H238.206V666.424H246.412V715.978H267.082H360.211H381.5V666.424H389.861V670.296H602.519V536.964H586.572V377.927H619.55Z" fill="#2E4083"/>
<path d="M16.8764 0V120.555H31.8174V266.662H0V390.237H31.74V524.73H16.5667V682.838H229.999V731.85H398.221V682.838H613.279V524.807H598.183V390.237H630V266.662H598.183V120.555H614.13V0H16.8764ZM25.0823 8.2848H605.924V112.348H589.977V274.947H621.794V382.03H589.899V533.092H604.995V674.786H390.015V690.039H389.937V723.952H238.205V674.786H24.8501V533.092H40.0233V382.107H8.28336V274.947H40.1008V112.348H25.1597V8.2848H25.0823Z" fill="#959C9D"/>
<path d="M389.86 541.299V591.007H381.499V537.272H246.411V591.007H238.205V541.299H133.153V591.007H124.947V541.299H97.078V533.091H124.947V382.107H97.078V379.629H44.049V537.35H29.8047V670.681H238.282V666.577H246.488V716.131H267.08H360.21H381.499V666.577H389.86V670.449H493.518V541.299H389.86Z" fill="#2E4083"/>
<path d="M389.86 541.3V591.009H381.499V283.155H246.411V590.931H238.205V541.223H133.153V590.931H124.947V541.223H97.078V533.015H124.947V382.03H97.078H44.049V537.196H29.8047V670.527H238.282V666.424H246.488V715.978H267.08H360.21H381.499V666.424H389.86V670.295H602.518V541.3H588.274H499.092H389.86Z" fill="#BBBCBC"/>
<path d="M503.196 382.029H586.572V549.429H503.196V382.029Z" fill="#BBBCBC"/>
<path d="M621.717 382.03V274.947H589.899V112.348H605.847V8.28467H25.0824V112.348H40.0235V274.947H8.20605V382.107H39.946V533.092H24.7728V674.708H243.624V666.501H33.0561V541.299H48.2294V373.823H16.4894V283.154H48.3068V104.141H33.2884V16.492H597.641V104.141H581.693V283.154H613.511V373.745H581.693V541.222H596.789V666.423H381.499V674.631H605.073V533.092H589.899V382.03H621.717Z" fill="#DCDFE0"/>
<path d="M57.7509 157.953H93.8261V121.871H57.7509V157.953ZM97.8517 161.979H53.7253V117.845H97.8517V161.979Z" fill="white"/>
<path d="M61.3896 148.274C61.4671 147.036 61.6993 145.874 62.0864 144.945C62.4734 143.938 63.0154 143.087 63.6347 142.39C64.254 141.616 64.9507 140.996 65.8023 140.377C66.5764 139.835 67.428 139.293 68.2795 138.751C68.744 138.441 69.2085 138.209 69.5182 137.976C69.8278 137.744 70.1375 137.512 70.3697 137.357C70.602 137.125 70.7568 136.97 70.8342 136.738C70.9116 136.505 70.9891 136.273 70.9891 136.041C70.9891 135.421 70.7568 134.957 70.2923 134.647C69.8278 134.26 69.1311 134.105 68.2021 134.105C67.5054 134.105 66.7313 134.26 65.9571 134.57C65.183 134.879 64.4862 135.266 63.7121 135.886L61.9315 133.563C62.7831 132.789 63.7895 132.247 64.8733 131.86C65.9571 131.473 67.1183 131.24 68.2795 131.24C69.2085 131.24 69.9827 131.318 70.7568 131.55C71.531 131.782 72.1503 132.092 72.6922 132.479C73.2341 132.866 73.6212 133.408 73.9308 133.95C74.2405 134.57 74.3953 135.189 74.3953 135.886C74.3953 136.428 74.3179 136.97 74.1631 137.434C74.0082 137.899 73.776 138.364 73.3889 138.751C73.0793 139.138 72.6148 139.602 72.0729 139.99C71.531 140.377 70.8342 140.764 70.0601 141.228C69.2859 141.616 68.6666 142.003 68.1247 142.39C67.5828 142.777 67.1957 143.087 66.8861 143.396C66.5764 143.706 66.2668 144.093 66.1119 144.403C65.9571 144.713 65.7249 145.1 65.6475 145.564H74.5501V148.429H61.3896V148.274Z" fill="white"/>
<path d="M88.9494 142.545C88.9494 143.551 88.7946 144.48 88.4075 145.255C88.0204 146.029 87.556 146.648 86.9366 147.113C86.3173 147.577 85.5432 147.965 84.6916 148.197C83.84 148.429 82.8337 148.584 81.7499 148.584C80.5886 148.584 79.4274 148.429 78.421 148.119C77.4146 147.81 76.4082 147.345 75.4019 146.803L76.8727 144.248C77.6469 144.713 78.4984 145.022 79.35 145.332C80.2016 145.564 81.0531 145.719 81.8273 145.719C82.9885 145.719 83.9175 145.487 84.5368 144.945C85.2335 144.403 85.5432 143.706 85.5432 142.7C85.5432 141.77 85.2335 141.074 84.6142 140.686C83.9949 140.222 83.2207 139.99 82.3692 139.99C81.7499 139.99 81.208 140.067 80.5886 140.299C80.0467 140.532 79.5048 140.764 79.0404 141.074L76.0212 139.99L76.6405 131.395H87.8656V134.26H79.5823L79.2726 137.822C79.2726 137.822 79.2726 137.822 79.35 137.822C80.4338 137.28 81.595 137.047 82.8337 137.047C83.8401 137.047 84.6916 137.202 85.4658 137.434C86.2399 137.667 86.8592 138.054 87.4011 138.518C87.943 138.983 88.3301 139.602 88.6398 140.222C88.7946 140.919 88.9494 141.693 88.9494 142.545Z" fill="white"/>
<path d="M26.0888 328.759H62.164V292.678H26.0888V328.759ZM66.1896 332.785H22.0632V288.651H66.1896V332.785Z" fill="white"/>
<path d="M29.7258 319.158C29.8032 317.919 30.0355 316.758 30.4226 315.829C30.8096 314.822 31.3515 313.97 31.9709 313.273C32.5902 312.499 33.2869 311.88 34.1385 311.26C34.99 310.641 35.7642 310.176 36.6157 309.634C37.0802 309.325 37.5447 309.092 37.8544 308.86C38.164 308.628 38.4737 308.395 38.7059 308.241C38.9382 308.008 39.093 307.854 39.1704 307.621C39.2478 307.389 39.3252 307.157 39.3252 306.924C39.3252 306.305 39.093 305.84 38.6285 305.453C38.164 305.066 37.4673 304.911 36.5383 304.911C35.8416 304.911 35.0674 305.066 34.2933 305.376C33.5191 305.686 32.8224 306.073 32.0483 306.692L30.2677 304.369C31.1193 303.595 32.1257 303.053 33.2095 302.666C34.2933 302.279 35.4545 302.046 36.6157 302.046C37.5447 302.046 38.3189 302.124 39.093 302.356C39.8671 302.588 40.4865 302.898 41.0284 303.285C41.5703 303.672 41.9573 304.137 42.267 304.756C42.5767 305.376 42.7315 305.995 42.7315 306.692C42.7315 307.234 42.6541 307.776 42.4992 308.241C42.3444 308.705 42.1122 309.17 41.7251 309.557C41.4154 309.944 40.9509 310.409 40.409 310.796C39.8671 311.183 39.1704 311.57 38.3963 312.035C37.6221 312.422 37.0028 312.809 36.4609 313.196C35.919 313.583 35.5319 313.893 35.2223 314.203C34.9126 314.512 34.6029 314.899 34.4481 315.209C34.2933 315.519 34.061 315.906 33.9836 316.371H42.8863V319.235H29.7258V319.158Z" fill="white"/>
<path d="M47.1461 312.809H52.5651V306.382L47.1461 312.809ZM55.7391 319.158H52.5651V315.596H43.3528V312.963L52.4103 302.124H55.8165V312.731H58.0616V315.519H55.7391V319.158Z" fill="white"/>
<path d="M57.7509 479.512H93.8261V443.43H57.7509V479.512ZM97.8517 483.538H53.7253V439.404H97.8517V483.538Z" fill="white"/>
<path d="M62.0093 469.911C62.0867 468.672 62.3189 467.51 62.706 466.581C63.0931 465.575 63.635 464.723 64.2543 464.026C64.8736 463.252 65.5703 462.632 66.4219 462.013C67.1961 461.471 68.0476 460.929 68.8992 460.387C69.3637 460.077 69.8282 459.845 70.1378 459.613C70.4475 459.38 70.7571 459.148 70.9894 458.993C71.2216 458.761 71.3764 458.606 71.4539 458.374C71.5313 458.142 71.6087 457.909 71.6087 457.677C71.6087 457.058 71.3764 456.593 70.912 456.283C70.4475 455.974 69.7507 455.741 68.8218 455.741C68.125 455.741 67.3509 455.896 66.5767 456.206C65.8026 456.516 65.1059 456.903 64.3317 457.522L62.5512 455.199C63.4027 454.425 64.4091 453.883 65.4929 453.496C66.5767 453.109 67.738 452.876 68.8992 452.876C69.8281 452.876 70.6023 452.954 71.3764 453.186C72.1506 453.418 72.7699 453.728 73.3118 454.115C73.8537 454.502 74.2408 455.044 74.5504 455.586C74.8601 456.206 75.0149 456.825 75.0149 457.522C75.0149 458.064 74.9375 458.606 74.7827 459.071C74.6279 459.535 74.3956 460 74.0085 460.387C73.6215 460.774 73.2344 461.239 72.6925 461.626C72.1506 462.013 71.4539 462.4 70.6797 462.865C69.9056 463.252 69.2862 463.639 68.7443 464.026C68.2024 464.413 67.8154 464.723 67.5057 465.033C67.196 465.342 66.8864 465.73 66.7316 466.039C66.5767 466.349 66.3445 466.736 66.2671 467.201H75.1698V470.066H62.0093V469.911Z" fill="white"/>
<path d="M90.2653 464.801C90.2653 465.653 90.1104 466.427 89.7234 467.046C89.3363 467.743 88.8718 468.285 88.2525 468.75C87.6332 469.214 86.9364 469.524 86.0849 469.834C85.2333 470.066 84.3818 470.221 83.4528 470.221C82.1367 470.221 80.9755 469.989 79.8143 469.524C78.7305 469.06 77.7241 468.44 76.95 467.588L79.1176 465.42C79.7369 466.04 80.4336 466.504 81.1303 466.814C81.8271 467.124 82.6012 467.201 83.3754 467.201C83.8399 467.201 84.3043 467.124 84.6914 467.046C85.0785 466.969 85.4656 466.737 85.7752 466.582C86.0849 466.35 86.3171 466.117 86.472 465.808C86.6268 465.498 86.7042 465.188 86.7042 464.801C86.7042 464.027 86.472 463.407 85.9301 463.02C85.3881 462.633 84.7688 462.401 83.9173 462.401H82.2141V459.846H83.9173C84.2269 459.846 84.5366 459.768 84.8463 459.691C85.1559 459.613 85.3882 459.458 85.6204 459.226C85.8526 458.994 86.0075 458.762 86.1623 458.529C86.3171 458.297 86.3945 457.987 86.3945 457.678C86.3945 457.445 86.3171 457.213 86.2397 456.981C86.1623 456.748 86.0075 456.516 85.7752 456.284C85.543 456.052 85.2333 455.897 84.8463 455.819C84.4592 455.664 83.9947 455.664 83.4528 455.664C82.7561 455.664 82.0593 455.819 81.44 456.052C80.7433 456.284 80.124 456.671 79.5046 457.213C79.195 456.826 78.8853 456.439 78.5757 456.052C78.266 455.664 77.9563 455.277 77.6467 454.89C78.4208 454.193 79.3498 453.651 80.4336 453.264C81.5174 452.877 82.6012 452.722 83.7624 452.722C84.6914 452.722 85.543 452.8 86.2397 453.032C87.0139 453.264 87.6332 453.574 88.1751 453.961C88.717 454.348 89.104 454.813 89.4137 455.432C89.7234 455.974 89.8782 456.594 89.8782 457.29C89.8782 458.142 89.646 458.839 89.2589 459.536C88.8718 460.155 88.1751 460.697 87.3235 461.084V461.162C87.788 461.317 88.1751 461.472 88.5621 461.704C88.9492 461.936 89.2589 462.246 89.4911 462.633C89.7234 462.943 89.9556 463.33 90.033 463.717C90.1879 464.027 90.2653 464.414 90.2653 464.801Z" fill="white"/>
<path d="M42.5009 656.977H78.5761V620.896H42.5009V656.977ZM82.6017 661.004H38.4753V616.87H82.6017V661.004Z" fill="white"/>
<path d="M46.5256 647.299C46.603 646.06 46.8353 644.898 47.2224 643.969C47.6094 642.963 48.1513 642.111 48.7707 641.414C49.39 640.64 50.0867 640.02 50.9383 639.401C51.7898 638.781 52.564 638.317 53.4155 637.775C53.88 637.465 54.3445 637.233 54.6542 637.001C54.9638 636.768 55.2735 636.536 55.5057 636.381C55.738 636.149 55.8928 635.994 55.9702 635.762C56.0476 635.53 56.125 635.297 56.125 635.065C56.125 634.446 55.8928 633.981 55.4283 633.594C54.9638 633.207 54.2671 633.052 53.3381 633.052C52.6414 633.052 51.8672 633.207 51.0931 633.516C50.3189 633.826 49.6222 634.213 48.8481 634.833L47.0675 632.51C47.9191 631.736 48.9255 631.194 50.0093 630.806C51.0931 630.419 52.2543 630.187 53.4155 630.187C54.3445 630.187 55.1186 630.264 55.8928 630.497C56.6669 630.729 57.2863 631.039 57.8282 631.426C58.3701 631.813 58.7571 632.355 59.0668 632.897C59.3765 633.439 59.5313 634.136 59.5313 634.833C59.5313 635.375 59.4539 635.917 59.299 636.381C59.1442 636.846 58.912 637.31 58.5249 637.698C58.2152 638.085 57.7507 638.549 57.2088 638.936C56.6669 639.324 55.9702 639.711 55.1961 640.175C54.4219 640.562 53.8026 640.949 53.2607 641.337C52.7188 641.724 52.3317 642.034 52.0221 642.343C51.7124 642.653 51.4027 643.04 51.2479 643.35C51.0931 643.659 50.8609 644.047 50.7834 644.511H59.6861V647.376H46.5256V647.299Z" fill="white"/>
<path d="M61.8542 647.299C61.9317 646.06 62.1639 644.898 62.551 643.969C62.9381 642.963 63.48 642.111 64.0993 641.414C64.7186 640.64 65.4153 640.02 66.2669 639.401C67.041 638.859 67.8926 638.317 68.7442 637.775C69.2086 637.465 69.6731 637.233 69.9828 637.001C70.2924 636.768 70.6021 636.536 70.8343 636.381C71.0666 636.149 71.2214 635.994 71.2988 635.762C71.3763 635.53 71.4537 635.297 71.4537 635.065C71.4537 634.446 71.2214 633.981 70.7569 633.594C70.2924 633.207 69.5957 633.052 68.6667 633.052C67.97 633.052 67.1959 633.207 66.4217 633.516C65.6476 633.826 64.9508 634.213 64.1767 634.833L62.3962 632.51C63.2477 631.736 64.2541 631.194 65.3379 630.806C66.4217 630.419 67.5829 630.187 68.7442 630.187C69.6731 630.187 70.4473 630.264 71.2214 630.497C71.9956 630.729 72.6149 631.039 73.1568 631.426C73.6987 631.813 74.0858 632.355 74.3954 632.897C74.7051 633.439 74.8599 634.136 74.8599 634.833C74.8599 635.375 74.7825 635.917 74.6277 636.381C74.4728 636.846 74.2406 637.31 73.8535 637.698C73.5439 638.085 73.0794 638.549 72.5375 638.936C71.9956 639.324 71.2988 639.711 70.5247 640.175C69.7505 640.562 69.1312 640.949 68.5893 641.337C68.0474 641.724 67.6603 642.034 67.3507 642.343C67.041 642.653 66.7314 643.04 66.5765 643.35C66.4217 643.659 66.1895 644.047 66.1121 644.511H75.0147V647.376H61.8542V647.299Z" fill="white"/>
<path d="M142.521 656.977H178.596V620.896H142.521V656.977ZM182.621 661.004H138.495V616.87H182.621V661.004Z" fill="white"/>
<path d="M146.778 647.299C146.855 646.06 147.088 644.898 147.475 643.969C147.862 642.963 148.404 642.111 149.023 641.414C149.642 640.64 150.339 640.02 151.191 639.401C151.965 638.859 152.816 638.317 153.668 637.775C154.132 637.465 154.597 637.233 154.907 637.001C155.216 636.768 155.526 636.536 155.758 636.381C155.99 636.149 156.145 635.994 156.223 635.762C156.3 635.53 156.377 635.297 156.377 635.065C156.377 634.446 156.145 633.981 155.681 633.594C155.216 633.207 154.52 633.052 153.591 633.052C152.894 633.052 152.12 633.207 151.346 633.516C150.571 633.826 149.875 634.213 149.101 634.833L147.32 632.51C148.172 631.736 149.178 631.194 150.262 630.806C151.346 630.419 152.507 630.187 153.668 630.187C154.597 630.187 155.371 630.264 156.145 630.497C156.919 630.729 157.539 631.039 158.081 631.426C158.623 631.813 159.01 632.355 159.319 632.897C159.629 633.439 159.784 634.136 159.784 634.833C159.784 635.375 159.706 635.917 159.551 636.381C159.397 636.846 159.164 637.31 158.777 637.698C158.39 638.085 158.003 638.549 157.461 638.936C156.919 639.324 156.223 639.711 155.448 640.175C154.674 640.562 154.055 640.949 153.513 641.337C152.971 641.724 152.584 642.034 152.275 642.343C151.965 642.653 151.655 643.04 151.5 643.35C151.346 643.659 151.191 644.047 151.036 644.511H159.939V647.376H146.778V647.299Z" fill="white"/>
<path d="M167.836 634.6H165.513V632.355C166.365 632.277 166.984 632.123 167.449 631.735C167.836 631.426 168.145 630.961 168.3 630.342H171.243V647.299H167.836V634.6Z" fill="white"/>
<path d="M42.8092 62.1744H78.8844V26.0929H42.8092V62.1744ZM82.91 66.2006H38.7837V22.0667H82.91V66.2006Z" fill="white"/>
<path d="M46.448 52.0313C46.5254 50.7924 46.7577 49.631 47.1447 48.7019C47.5318 47.6953 48.0737 46.8436 48.693 46.1467C49.3123 45.3725 50.0091 44.753 50.8606 44.1336C51.6348 43.5916 52.4863 43.0496 53.3379 42.5076C53.8024 42.1979 54.2669 41.9656 54.5765 41.7333C54.8862 41.5011 55.1959 41.2688 55.4281 41.1139C55.6603 40.8816 55.8152 40.7268 55.8926 40.4945C55.97 40.2622 56.0474 40.0299 56.0474 39.7976C56.0474 39.1782 55.8152 38.7137 55.3507 38.3265C54.8862 38.0168 54.1895 37.7845 53.2605 37.7845C52.5638 37.7845 51.7896 37.9394 51.0155 38.2491C50.2413 38.5588 49.5446 38.9459 48.7704 39.5654L46.9899 37.2425C47.8415 36.4682 48.8479 35.9262 49.9317 35.5391C51.0155 35.152 52.1767 34.9197 53.3379 34.9197C54.2669 34.9197 55.041 34.9971 55.8152 35.2294C56.5893 35.4617 57.2086 35.7714 57.7505 36.1585C58.2924 36.5457 58.6795 37.0877 58.9892 37.6297C59.2988 38.2491 59.4537 38.8685 59.4537 39.5654C59.4537 40.1074 59.3762 40.6494 59.2214 41.1139C59.0666 41.5785 58.8343 42.0431 58.4473 42.4302C58.1376 42.8173 57.6731 43.2819 57.1312 43.669C56.5893 44.0562 55.8926 44.4433 55.1184 44.9079C54.3443 45.295 53.725 45.6822 53.1831 46.0693C52.6412 46.4565 52.2541 46.7662 51.9444 47.0759C51.6348 47.3856 51.3251 47.7727 51.1703 48.0824C51.0155 48.3922 50.7832 48.7793 50.7058 49.2439H59.6085V52.1087H46.448V52.0313Z" fill="white"/>
<path d="M70.8336 46.6112C70.8336 45.7595 70.5239 45.0627 69.9046 44.5981C69.2853 44.1335 68.4337 43.9012 67.3499 43.9012C66.1887 43.9012 65.3371 44.1335 64.6404 44.6755C64.0211 45.1401 63.634 45.8369 63.634 46.6886C63.634 47.0758 63.7114 47.4629 63.8663 47.7726C64.0211 48.0823 64.2533 48.3921 64.563 48.7018C64.8726 48.9341 65.2597 49.1663 65.6468 49.3212C66.1113 49.476 66.5758 49.5535 67.1951 49.5535C68.3563 49.5535 69.2079 49.3212 69.8272 48.7792C70.5239 48.1598 70.8336 47.4629 70.8336 46.6112ZM74.1624 46.4564C74.1624 47.3855 74.0076 48.2372 73.6205 48.9341C73.3108 49.6309 72.7689 50.2503 72.1496 50.7149C71.5303 51.1795 70.7562 51.5666 69.9046 51.7989C69.053 52.0312 68.0466 52.186 67.0403 52.186C66.1113 52.186 65.1823 52.0312 64.4082 51.7989C63.5566 51.5666 62.8599 51.102 62.2405 50.56C61.6212 50.018 61.1567 49.3212 60.8471 48.4695C60.5374 47.6178 60.3052 46.6112 60.3052 45.3724C60.3052 44.6755 60.3826 43.9012 60.5374 43.0495C60.6923 42.2752 60.9245 41.4235 61.3116 40.6493C61.6986 39.875 62.1631 39.1007 62.705 38.4038C63.3244 37.707 64.0211 37.0876 64.8726 36.5456C65.7242 36.0036 66.7306 35.539 67.8144 35.2293C68.9756 34.9196 70.2143 34.6873 71.6851 34.6099V37.707C70.6787 37.7844 69.8272 37.8618 69.053 38.0167C68.2789 38.1716 67.5822 38.4813 66.9628 38.791C66.3435 39.1781 65.8016 39.6427 65.3371 40.1847C64.8726 40.7267 64.4856 41.4235 64.0985 42.1978H64.1759C64.7178 41.8107 65.3371 41.501 65.9564 41.3461C66.5758 41.1912 67.2725 41.1138 67.9692 41.1138C68.7434 41.1138 69.5175 41.1913 70.2917 41.4235C70.9884 41.6558 71.6851 41.9655 72.227 42.4301C72.7689 42.8947 73.2334 43.4367 73.5431 44.0561C74.0076 44.7529 74.1624 45.6046 74.1624 46.4564Z" fill="white"/>
<path d="M297.737 62.1744H333.813V26.0929H297.737V62.1744ZM337.838 66.2006H293.712V22.0667H337.838V66.2006Z" fill="white"/>
<path d="M301.376 52.0313C301.453 50.7924 301.686 49.631 302.073 48.7019C302.46 47.6953 303.002 46.8436 303.621 46.1467C304.24 45.3725 304.937 44.753 305.789 44.1336C306.563 43.5916 307.414 43.0496 308.266 42.5076C308.73 42.1979 309.195 41.9656 309.505 41.7333C309.814 41.5011 310.124 41.2688 310.356 41.1139C310.588 40.8816 310.743 40.7268 310.821 40.4945C310.898 40.2622 310.975 40.0299 310.975 39.7976C310.975 39.1782 310.743 38.7137 310.279 38.3265C309.814 38.0168 309.117 37.7845 308.188 37.7845C307.492 37.7845 306.718 37.9394 305.943 38.2491C305.169 38.5588 304.473 38.9459 303.698 39.5654L301.918 37.2425C302.769 36.4682 303.776 35.9262 304.86 35.5391C305.943 35.152 307.105 34.9197 308.266 34.9197C309.195 34.9197 309.969 34.9971 310.743 35.2294C311.517 35.4617 312.137 35.7714 312.679 36.1585C313.22 36.5457 313.607 37.0877 313.917 37.6297C314.227 38.2491 314.382 38.8685 314.382 39.5654C314.382 40.1074 314.304 40.6494 314.149 41.1139C313.995 41.5785 313.762 42.0431 313.375 42.4302C313.066 42.8173 312.601 43.2819 312.059 43.669C311.517 44.0562 310.821 44.4433 310.046 44.9079C309.272 45.295 308.653 45.6822 308.111 46.0693C307.569 46.4565 307.182 46.7662 306.795 47.0759C306.485 47.3856 306.176 47.7727 306.021 48.0824C305.866 48.3922 305.634 48.7793 305.556 49.2439H314.459V52.1087H301.376V52.0313Z" fill="white"/>
<path d="M319.335 52.0317C319.335 49.3217 319.799 46.7666 320.728 44.3663C321.657 41.8886 322.973 39.7981 324.676 37.9398H315.696V35.075H328.469V37.8624C326.689 39.7206 325.295 41.8112 324.289 44.134C323.283 46.4569 322.741 49.0894 322.741 52.0317H319.335Z" fill="white"/>
<path d="M552.12 62.1744H588.195V26.0929H552.12V62.1744ZM592.221 66.2006H548.094V22.0667H592.221V66.2006Z" fill="white"/>
<path d="M555.14 52.0313C555.217 50.7924 555.449 49.631 555.836 48.7019C556.223 47.6953 556.765 46.8436 557.385 46.1467C558.004 45.3725 558.701 44.753 559.552 44.1336C560.326 43.5916 561.178 43.0496 562.03 42.5076C562.494 42.1979 562.959 41.9656 563.268 41.7333C563.578 41.5011 563.888 41.2688 564.12 41.1139C564.352 40.8816 564.507 40.7268 564.584 40.4945C564.662 40.2622 564.739 40.0299 564.739 39.7976C564.739 39.1782 564.507 38.7137 564.042 38.3265C563.578 38.0168 562.881 37.7845 561.952 37.7845C561.255 37.7845 560.481 37.9394 559.707 38.2491C558.933 38.5588 558.236 38.9459 557.462 39.5654L555.682 37.2425C556.533 36.4682 557.54 35.9262 558.623 35.5391C559.707 35.152 560.868 34.9197 562.03 34.9197C562.959 34.9197 563.733 34.9971 564.507 35.2294C565.281 35.4617 565.9 35.7714 566.442 36.1585C566.984 36.5457 567.371 37.0877 567.681 37.6297C567.99 38.2491 568.145 38.8685 568.145 39.5654C568.145 40.1074 568.068 40.6494 567.913 41.1139C567.758 41.5785 567.526 42.0431 567.139 42.4302C566.752 42.8173 566.365 43.2819 565.823 43.669C565.281 44.0562 564.584 44.4433 563.81 44.9079C563.036 45.295 562.417 45.6822 561.875 46.0693C561.333 46.4565 560.946 46.7662 560.559 47.0759C560.172 47.3856 559.939 47.7727 559.785 48.0824C559.63 48.3922 559.397 48.7793 559.32 49.2439H568.223V52.1087H555.14V52.0313Z" fill="white"/>
<path d="M580.222 39.7203C580.222 39.1009 579.99 38.6363 579.525 38.1718C579.061 37.7072 578.287 37.4749 577.203 37.4749C576.197 37.4749 575.422 37.7072 574.958 38.0943C574.493 38.5589 574.261 39.0235 574.261 39.6429C574.261 40.2623 574.571 40.8043 575.035 41.1915C575.577 41.5786 576.274 41.8109 577.28 41.8109C578.209 41.8109 578.984 41.5786 579.448 41.1915C579.99 40.8043 580.222 40.3397 580.222 39.7203ZM580.996 46.9986C580.996 46.1469 580.687 45.5274 580.067 45.0629C579.448 44.5983 578.519 44.366 577.203 44.366C576.042 44.366 575.113 44.5983 574.493 45.0629C573.874 45.5274 573.487 46.1469 573.487 46.9211C573.487 47.7728 573.797 48.3923 574.416 48.8568C575.035 49.3214 575.964 49.5537 577.203 49.5537C578.442 49.5537 579.371 49.3214 579.99 48.8568C580.687 48.3923 580.996 47.7728 580.996 46.9986ZM584.325 46.9986C584.325 48.702 583.706 50.0183 582.39 50.87C581.151 51.7991 579.371 52.2637 577.126 52.2637C574.881 52.2637 573.1 51.7991 571.861 50.87C570.623 49.9408 570.003 48.6246 570.003 46.9986C570.003 46.1469 570.236 45.2951 570.778 44.5209C571.242 43.7466 572.016 43.2046 572.945 42.8949C572.481 42.74 572.171 42.5077 571.861 42.198C571.552 41.9657 571.319 41.656 571.165 41.3463C571.01 41.0366 570.855 40.7269 570.855 40.4172C570.778 40.1075 570.778 39.7978 570.778 39.5655C570.778 38.7912 570.932 38.0943 571.242 37.4749C571.552 36.8555 572.016 36.3909 572.558 35.9263C573.1 35.5392 573.797 35.2295 574.571 34.9972C575.345 34.7649 576.197 34.6875 577.126 34.6875C577.977 34.6875 578.829 34.7649 579.603 34.9972C580.377 35.2295 581.074 35.4618 581.616 35.9263C582.158 36.3135 582.622 36.8555 583.009 37.3975C583.319 38.0169 583.551 38.7138 583.551 39.488C583.551 39.7203 583.551 40.03 583.474 40.3398C583.396 40.6495 583.319 40.9592 583.087 41.2689C582.932 41.5786 582.699 41.8109 582.39 42.1206C582.08 42.4303 581.77 42.6626 581.306 42.8174C582.235 43.2046 583.009 43.6692 583.474 44.4434C584.093 45.2177 584.325 46.0694 584.325 46.9986Z" fill="white"/>
<path d="M536.096 157.953H572.172V121.871H536.096V157.953ZM576.197 161.979H532.071V117.845H576.197V161.979Z" fill="white"/>
<path d="M539.426 148.429C539.503 147.191 539.735 146.029 540.123 145.1C540.51 144.094 541.052 143.242 541.671 142.545C542.29 141.771 542.987 141.151 543.838 140.532C544.613 139.99 545.464 139.448 546.316 138.906C546.78 138.596 547.245 138.364 547.554 138.132C547.864 137.899 548.174 137.667 548.406 137.512C548.638 137.28 548.793 137.125 548.87 136.893C548.948 136.66 549.025 136.428 549.025 136.196C549.025 135.576 548.793 135.112 548.328 134.725C547.864 134.415 547.167 134.183 546.238 134.183C545.542 134.183 544.767 134.338 543.993 134.647C543.219 134.957 542.522 135.344 541.748 135.964L539.968 133.641C540.819 132.866 541.826 132.324 542.909 131.937C543.993 131.55 545.154 131.318 546.316 131.318C547.245 131.318 548.019 131.395 548.793 131.628C549.567 131.86 550.186 132.17 550.728 132.557C551.27 132.944 551.657 133.486 551.967 134.028C552.277 134.647 552.431 135.267 552.431 135.964C552.431 136.506 552.354 137.048 552.199 137.512C552.044 137.977 551.812 138.441 551.425 138.828C551.038 139.216 550.651 139.68 550.109 140.067C549.567 140.454 548.87 140.842 548.096 141.306C547.322 141.693 546.703 142.08 546.161 142.468C545.619 142.855 545.232 143.164 544.845 143.474C544.535 143.784 544.225 144.171 544.071 144.481C543.916 144.79 543.684 145.177 543.606 145.642H552.509V148.507H539.426V148.429Z" fill="white"/>
<path d="M564.274 136.893C564.274 136.506 564.197 136.118 564.042 135.809C563.887 135.499 563.655 135.189 563.345 134.88C563.036 134.647 562.649 134.415 562.262 134.26C561.797 134.105 561.333 134.028 560.713 134.028C559.552 134.028 558.701 134.26 558.081 134.802C557.462 135.344 557.152 136.041 557.152 136.815C557.152 137.667 557.462 138.364 558.081 138.828C558.701 139.293 559.552 139.525 560.636 139.525C561.797 139.525 562.649 139.293 563.345 138.751C563.965 138.286 564.274 137.667 564.274 136.893ZM567.681 138.054C567.681 139.138 567.526 140.3 567.139 141.538C566.752 142.777 566.132 143.861 565.281 144.945C564.429 145.952 563.268 146.881 561.797 147.578C560.326 148.275 558.546 148.662 556.301 148.739V145.874C557.307 145.874 558.159 145.719 558.933 145.565C559.707 145.41 560.404 145.1 561.023 144.79C561.642 144.403 562.184 143.939 562.649 143.397C563.113 142.855 563.5 142.158 563.887 141.384L563.81 141.306C563.191 141.771 562.571 142.003 561.875 142.158C561.178 142.313 560.559 142.39 559.939 142.39C559.088 142.39 558.314 142.313 557.617 142.08C556.92 141.848 556.223 141.538 555.681 141.074C555.14 140.609 554.675 140.067 554.365 139.448C554.056 138.751 553.901 137.977 553.901 137.125C553.901 136.196 554.056 135.344 554.443 134.647C554.83 133.95 555.294 133.331 555.914 132.789C556.533 132.324 557.307 131.937 558.159 131.705C559.01 131.473 560.017 131.318 561.023 131.318C561.952 131.318 562.881 131.473 563.733 131.705C564.584 131.937 565.281 132.402 565.9 132.944C566.519 133.486 566.984 134.183 567.294 135.034C567.526 135.809 567.681 136.893 567.681 138.054Z" fill="white"/>
<path d="M568.765 327.907H603.989V292.678H568.765V327.907ZM608.015 331.934H564.74V288.651H608.015V331.934Z" fill="white"/>
<path d="M577.28 305.763H574.957V303.518C575.809 303.44 576.428 303.285 576.893 302.898C577.28 302.588 577.59 302.124 577.744 301.504H580.687V318.461H577.28V305.763Z" fill="white"/>
<path d="M594.081 313.041C594.081 312.19 593.771 311.493 593.152 311.028C592.532 310.564 591.681 310.331 590.597 310.331C589.436 310.331 588.584 310.564 587.965 311.106C587.346 311.57 586.959 312.267 586.959 313.041C586.959 313.429 587.036 313.816 587.191 314.125C587.346 314.435 587.578 314.745 587.887 315.055C588.197 315.287 588.584 315.519 588.971 315.674C589.436 315.829 589.9 315.906 590.52 315.906C591.681 315.906 592.532 315.674 593.152 315.132C593.771 314.59 594.081 313.893 594.081 313.041ZM597.409 312.887C597.409 313.816 597.255 314.667 596.868 315.364C596.48 316.061 596.016 316.681 595.397 317.145C594.777 317.61 594.003 317.997 593.152 318.229C592.3 318.461 591.294 318.616 590.287 318.616C589.358 318.616 588.429 318.461 587.655 318.229C586.804 317.997 586.107 317.532 585.488 316.99C584.868 316.448 584.404 315.751 584.094 314.9C583.784 314.048 583.552 313.041 583.552 311.803C583.552 311.106 583.63 310.331 583.784 309.48C583.939 308.705 584.172 307.854 584.559 307.079C584.946 306.305 585.41 305.531 585.952 304.834C586.494 304.137 587.268 303.518 588.12 302.976C588.971 302.434 589.978 301.969 591.061 301.659C592.145 301.35 593.461 301.117 594.932 301.04V303.905C593.926 303.982 593.074 304.06 592.3 304.215C591.526 304.369 590.829 304.679 590.21 304.989C589.591 305.376 589.049 305.841 588.584 306.383C588.12 306.925 587.733 307.621 587.346 308.396H587.423C587.965 308.009 588.584 307.699 589.204 307.544C589.823 307.389 590.52 307.312 591.216 307.312C592.068 307.312 592.842 307.389 593.539 307.621C594.235 307.854 594.932 308.163 595.474 308.628C596.016 309.093 596.481 309.635 596.79 310.254C597.255 311.183 597.409 311.957 597.409 312.887Z" fill="white"/>
<path d="M524.405 537.273H560.48V501.192H524.405V537.273ZM564.506 541.3H520.38V497.166H564.506V541.3Z" fill="white"/>
<path d="M533.774 514.587H531.451V512.342C532.303 512.264 532.922 512.109 533.387 511.722C533.774 511.413 534.084 510.948 534.239 510.329H537.181V527.285H533.774V514.587Z" fill="white"/>
<path d="M546.084 527.285C546.084 524.575 546.548 522.02 547.477 519.62C548.406 517.142 549.722 515.052 551.425 513.193H542.445V510.329H555.218V513.116C553.438 514.974 552.044 517.065 551.038 519.388C550.032 521.711 549.49 524.343 549.49 527.285H546.084Z" fill="white"/>
<path d="M450.244 426.783H485.468V391.554H450.244V426.783ZM489.571 430.81H446.296V387.527H489.571V430.81Z" fill="white"/>
<path d="M454.578 406.652H452.256V404.406C453.107 404.329 453.727 404.174 454.191 403.787C454.578 403.477 454.888 403.013 455.043 402.316H457.985V419.273H454.578V406.652Z" fill="white"/>
<path d="M471.687 413.931C471.687 413.079 471.377 412.382 470.758 411.917C470.139 411.453 469.287 411.221 468.203 411.221C467.042 411.221 466.19 411.453 465.571 411.995C464.952 412.459 464.565 413.156 464.565 414.008C464.565 414.395 464.642 414.782 464.797 415.092C464.952 415.402 465.184 415.711 465.494 416.021C465.803 416.253 466.19 416.486 466.577 416.641C467.042 416.795 467.506 416.873 468.126 416.873C469.287 416.873 470.139 416.641 470.758 416.099C471.377 415.479 471.687 414.782 471.687 413.931ZM475.093 413.776C475.093 414.705 474.938 415.557 474.551 416.253C474.242 416.95 473.7 417.57 473.08 418.034C472.461 418.499 471.687 418.886 470.835 419.118C469.984 419.35 468.977 419.505 467.971 419.505C467.042 419.505 466.113 419.35 465.339 419.118C464.487 418.886 463.791 418.421 463.171 417.879C462.552 417.337 462.087 416.641 461.778 415.789C461.468 414.937 461.236 413.931 461.236 412.692C461.236 411.995 461.313 411.221 461.468 410.369C461.623 409.595 461.855 408.743 462.242 407.969C462.629 407.194 463.094 406.42 463.636 405.723C464.255 405.026 464.952 404.407 465.803 403.865C466.655 403.323 467.661 402.858 468.745 402.549C469.829 402.239 471.145 402.007 472.616 401.929V404.794C471.609 404.871 470.758 404.949 469.984 405.104C469.21 405.259 468.513 405.568 467.894 405.878C467.274 406.265 466.732 406.73 466.268 407.272C465.803 407.814 465.416 408.511 465.029 409.285H465.107C465.648 408.898 466.268 408.588 466.887 408.433C467.506 408.278 468.203 408.201 468.9 408.201C469.751 408.201 470.526 408.278 471.222 408.511C471.919 408.743 472.616 409.053 473.158 409.517C473.7 409.982 474.164 410.524 474.474 411.143C474.938 412.072 475.093 412.847 475.093 413.776Z" fill="white"/>
<path d="M481.055 401.386C480.822 401.232 480.513 401.154 480.28 400.999C479.971 400.922 479.661 400.844 479.274 400.844C478.81 400.844 478.422 400.922 478.113 401.154C477.803 401.386 477.648 401.696 477.648 402.161C477.648 402.548 477.803 402.858 478.035 403.09C478.268 403.322 478.655 403.4 479.119 403.4C479.429 403.4 479.739 403.322 480.126 403.167C480.435 403.012 480.745 402.78 480.977 402.548V401.386H481.055ZM481.055 405.18V404.406H480.977C480.59 404.793 480.126 405.026 479.661 405.18C479.197 405.335 478.732 405.413 478.423 405.413C478.035 405.413 477.648 405.335 477.261 405.258C476.874 405.103 476.565 404.948 476.255 404.716C475.945 404.484 475.713 404.174 475.558 403.787C475.403 403.4 475.326 402.935 475.326 402.393C475.326 401.928 475.403 401.464 475.636 401.077C475.868 400.69 476.1 400.38 476.41 400.148C476.719 399.915 477.106 399.683 477.571 399.528C478.035 399.373 478.423 399.296 478.964 399.296C479.351 399.296 479.739 399.296 480.048 399.373C480.435 399.451 480.745 399.528 481.209 399.76V399.141C481.209 398.134 480.668 397.67 479.506 397.67C479.042 397.67 478.655 397.747 478.268 397.825C477.881 397.902 477.416 398.057 477.029 398.289L476.332 396.508C476.874 396.276 477.416 396.044 477.958 395.889C478.577 395.734 479.197 395.657 479.816 395.657C481.055 395.657 481.984 395.966 482.603 396.508C483.222 397.05 483.532 397.902 483.532 398.986V405.258H481.055V405.18Z" fill="white"/>
<path d="M449.392 656.977H485.467V620.896H449.392V656.977ZM489.493 661.004H445.366V616.87H489.493V661.004Z" fill="white"/>
<path d="M456.978 634.135H454.655V631.89C455.507 631.812 456.126 631.658 456.591 631.27C456.978 630.961 457.288 630.496 457.442 629.799H460.385V646.756H456.978V634.135Z" fill="white"/>
<path d="M475.093 634.523C475.093 633.904 474.86 633.439 474.396 632.974C473.932 632.51 473.157 632.278 472.074 632.278C471.067 632.278 470.293 632.51 469.829 632.897C469.364 633.362 469.132 633.826 469.132 634.446C469.132 635.065 469.364 635.607 469.906 635.994C470.448 636.381 471.145 636.614 472.151 636.614C473.08 636.614 473.854 636.381 474.319 635.994C474.861 635.607 475.093 635.142 475.093 634.523ZM475.867 641.801C475.867 640.95 475.557 640.33 474.938 639.866C474.319 639.401 473.39 639.169 472.074 639.169C470.912 639.169 469.983 639.401 469.364 639.866C468.745 640.33 468.358 640.95 468.358 641.724C468.358 642.576 468.667 643.195 469.287 643.66C469.906 644.124 470.835 644.356 472.074 644.356C473.312 644.356 474.241 644.124 474.861 643.66C475.557 643.118 475.867 642.498 475.867 641.801ZM479.196 641.801C479.196 643.505 478.576 644.821 477.26 645.673C476.022 646.602 474.241 647.066 471.996 647.066C469.751 647.066 467.971 646.602 466.732 645.673C465.493 644.744 464.874 643.427 464.874 641.801C464.874 640.95 465.106 640.098 465.648 639.324C466.113 638.549 466.887 638.007 467.816 637.698C467.351 637.465 467.042 637.31 466.732 637.001C466.422 636.768 466.19 636.459 466.035 636.149C465.88 635.839 465.726 635.53 465.726 635.22C465.648 634.91 465.648 634.6 465.648 634.368C465.648 633.594 465.803 632.897 466.113 632.278C466.422 631.658 466.887 631.194 467.429 630.729C467.971 630.342 468.667 630.032 469.442 629.8C470.216 629.568 471.067 629.49 471.996 629.49C472.848 629.49 473.699 629.568 474.473 629.8C475.248 630.032 475.944 630.265 476.486 630.729C477.028 631.116 477.493 631.658 477.88 632.2C478.189 632.82 478.422 633.517 478.422 634.291C478.422 634.523 478.422 634.833 478.344 635.142C478.267 635.452 478.189 635.762 477.957 636.072C477.802 636.381 477.57 636.691 477.26 636.923C476.951 637.233 476.641 637.465 476.177 637.62C477.106 638.007 477.88 638.472 478.344 639.246C478.964 640.02 479.196 640.872 479.196 641.801Z" fill="white"/>
<path d="M296.498 586.905H332.573V550.823H296.498V586.905ZM336.598 590.931H292.472V546.797H336.598V590.931Z" fill="white"/>
<path d="M304.085 564.063H301.762V561.895C302.614 561.817 303.233 561.662 303.698 561.275C304.085 560.966 304.395 560.501 304.55 559.804H307.492V576.761H304.085V564.063Z" fill="white"/>
<path d="M322.665 565.225C322.665 564.838 322.587 564.45 322.433 564.141C322.278 563.831 322.046 563.521 321.736 563.212C321.426 562.979 321.039 562.747 320.652 562.592C320.188 562.437 319.723 562.36 319.104 562.36C317.943 562.36 317.091 562.592 316.472 563.134C315.852 563.676 315.543 564.373 315.543 565.147C315.543 565.999 315.852 566.696 316.472 567.16C317.091 567.625 317.943 567.857 319.026 567.857C320.188 567.857 321.039 567.625 321.736 567.083C322.278 566.696 322.665 565.999 322.665 565.225ZM325.994 566.386C325.994 567.47 325.839 568.632 325.452 569.87C325.065 571.109 324.445 572.193 323.594 573.277C322.742 574.361 321.581 575.213 320.11 575.91C318.639 576.607 316.859 576.994 314.614 577.071V574.206C315.62 574.129 316.472 574.052 317.246 573.897C318.02 573.742 318.717 573.432 319.336 573.122C319.955 572.735 320.497 572.271 320.962 571.729C321.426 571.187 321.813 570.49 322.2 569.716L322.123 569.638C321.504 570.103 320.884 570.335 320.188 570.49C319.491 570.645 318.872 570.722 318.252 570.722C317.401 570.722 316.627 570.645 315.93 570.412C315.233 570.18 314.536 569.87 313.994 569.406C313.453 568.941 312.988 568.399 312.678 567.78C312.369 567.16 312.214 566.309 312.214 565.457C312.214 564.528 312.369 563.676 312.756 562.979C313.143 562.282 313.607 561.663 314.227 561.121C314.846 560.656 315.62 560.269 316.472 560.037C317.323 559.805 318.33 559.65 319.336 559.65C320.265 559.65 321.194 559.805 322.046 560.037C322.897 560.269 323.594 560.734 324.213 561.276C324.832 561.818 325.297 562.515 325.607 563.366C325.839 564.218 325.994 565.225 325.994 566.386Z" fill="white"/>
<path d="M296.498 706.453H332.573V670.372H296.498V706.453ZM336.598 710.557H292.472V666.423H336.598V710.557Z" fill="white"/>
<path d="M299.596 696.388C299.674 695.149 299.906 693.988 300.293 693.059C300.68 692.052 301.222 691.2 301.841 690.503C302.461 689.729 303.157 689.11 304.009 688.49C304.783 687.948 305.635 687.406 306.486 686.864C306.951 686.555 307.415 686.322 307.725 686.09C308.034 685.858 308.344 685.625 308.576 685.471C308.809 685.238 308.963 685.083 309.041 684.851C309.118 684.619 309.196 684.387 309.196 684.154C309.196 683.535 308.963 683.07 308.499 682.683C308.034 682.374 307.338 682.141 306.409 682.141C305.712 682.141 304.938 682.296 304.164 682.606C303.39 682.916 302.693 683.303 301.919 683.922L300.138 681.599C300.99 680.825 301.996 680.283 303.08 679.896C304.164 679.509 305.325 679.276 306.486 679.276C307.415 679.276 308.189 679.354 308.963 679.586C309.738 679.818 310.357 680.128 310.899 680.515C311.441 680.902 311.828 681.444 312.137 681.986C312.447 682.528 312.602 683.225 312.602 683.922C312.602 684.464 312.524 685.006 312.37 685.471C312.215 685.935 311.983 686.4 311.595 686.787C311.208 687.174 310.821 687.639 310.279 688.026C309.737 688.413 309.041 688.8 308.267 689.265C307.492 689.652 306.873 690.039 306.331 690.426C305.789 690.813 305.402 691.123 305.015 691.433C304.706 691.742 304.396 692.129 304.241 692.439C304.009 692.749 303.854 693.136 303.777 693.601H312.679V696.465H299.596V696.388Z" fill="white"/>
<path d="M321.813 682.141C320.497 682.141 319.49 682.683 318.871 683.69C318.174 684.697 317.865 686.09 317.865 687.871C317.865 688.723 317.942 689.497 318.097 690.194C318.252 690.891 318.484 691.51 318.871 692.052C319.181 692.594 319.645 692.981 320.11 693.214C320.574 693.523 321.193 693.601 321.813 693.601C322.432 693.601 323.051 693.446 323.593 693.214C324.058 692.904 324.522 692.517 324.832 692.052C325.141 691.588 325.451 690.968 325.606 690.271C325.761 689.575 325.838 688.8 325.838 687.949C325.838 686.168 325.451 684.774 324.754 683.767C324.058 682.606 323.051 682.141 321.813 682.141ZM321.813 696.621C320.574 696.621 319.49 696.388 318.561 695.924C317.632 695.459 316.858 694.84 316.239 694.065C315.619 693.291 315.155 692.362 314.845 691.278C314.536 690.194 314.381 689.11 314.381 687.949C314.381 686.787 314.536 685.703 314.845 684.619C315.155 683.535 315.619 682.606 316.239 681.832C316.858 681.058 317.632 680.361 318.561 679.896C319.49 679.432 320.574 679.199 321.813 679.199C322.974 679.199 323.98 679.431 324.909 679.819C325.838 680.206 326.612 680.825 327.309 681.599C327.928 682.374 328.47 683.303 328.857 684.387C329.244 685.471 329.399 686.632 329.399 687.949C329.399 689.265 329.244 690.426 328.857 691.51C328.47 692.594 328.006 693.523 327.309 694.298C326.612 695.072 325.838 695.691 324.909 696.079C323.903 696.388 322.896 696.621 321.813 696.621Z" fill="white"/>
<path d="M355.952 108.244V77.8921H272.034V108.244H246.488V275.411H278.305V283.154H350.533V275.411H381.576V108.244H355.952Z" fill="#BBBCBC"/>
<path d="M297.737 157.953H333.813V121.871H297.737V157.953ZM337.838 161.979H293.712V117.845H337.838V161.979Z" fill="white"/>
<path d="M313.994 143.396C313.994 144.248 313.839 145.022 313.452 145.642C313.065 146.261 312.601 146.881 311.981 147.345C311.362 147.81 310.665 148.12 309.814 148.352C308.962 148.584 308.111 148.739 307.182 148.739C305.865 148.739 304.704 148.507 303.543 148.042C302.459 147.578 301.453 146.958 300.679 146.106L302.846 143.938C303.466 144.558 304.162 145.022 304.859 145.332C305.556 145.642 306.33 145.719 307.104 145.719C307.569 145.719 308.033 145.642 308.42 145.564C308.807 145.487 309.194 145.255 309.504 145.1C309.814 144.868 310.046 144.635 310.201 144.326C310.356 144.016 310.433 143.706 310.433 143.319C310.433 142.545 310.201 141.925 309.659 141.538C309.117 141.151 308.498 140.919 307.646 140.919H305.943V138.364H307.646C307.956 138.364 308.265 138.286 308.575 138.209C308.885 138.131 309.117 137.976 309.349 137.744C309.581 137.512 309.736 137.28 309.891 137.047C310.046 136.815 310.123 136.505 310.123 136.196C310.123 135.963 310.046 135.731 309.968 135.499C309.891 135.266 309.736 135.034 309.504 134.802C309.272 134.57 308.962 134.415 308.575 134.337C308.188 134.183 307.723 134.183 307.182 134.183C306.485 134.183 305.788 134.337 305.169 134.57C304.472 134.802 303.853 135.189 303.233 135.731C302.924 135.344 302.614 134.957 302.304 134.57C301.995 134.183 301.685 133.795 301.375 133.408C302.15 132.711 303.079 132.169 304.162 131.782C305.246 131.395 306.33 131.24 307.491 131.24C308.42 131.24 309.272 131.318 309.968 131.55C310.743 131.782 311.362 132.092 311.904 132.479C312.446 132.866 312.833 133.331 313.142 133.95C313.452 134.492 313.607 135.112 313.607 135.808C313.607 136.66 313.375 137.357 312.988 138.054C312.523 138.673 311.904 139.215 311.052 139.602V139.68C311.517 139.835 311.904 139.99 312.291 140.222C312.678 140.454 312.988 140.764 313.22 141.151C313.452 141.461 313.684 141.848 313.762 142.235C313.917 142.622 313.994 143.009 313.994 143.396Z" fill="white"/>
<path d="M323.205 134.26C321.889 134.26 320.883 134.802 320.264 135.809C319.567 136.815 319.257 138.209 319.257 139.99C319.257 140.842 319.335 141.616 319.49 142.313C319.644 143.01 319.877 143.629 320.264 144.171C320.573 144.713 321.038 145.1 321.502 145.332C321.967 145.642 322.586 145.719 323.205 145.719C323.825 145.719 324.444 145.565 324.986 145.332C325.528 145.1 325.915 144.636 326.225 144.171C326.534 143.706 326.844 143.087 326.999 142.39C327.154 141.693 327.231 140.919 327.231 140.067C327.231 138.286 326.844 136.893 326.147 135.886C325.528 134.725 324.522 134.26 323.205 134.26ZM323.205 148.739C321.967 148.739 320.883 148.507 319.954 148.042C319.025 147.578 318.251 146.958 317.632 146.184C317.012 145.41 316.548 144.481 316.238 143.397C315.929 142.313 315.774 141.229 315.774 140.067C315.774 138.906 315.929 137.822 316.238 136.738C316.548 135.654 317.012 134.725 317.632 133.95C318.251 133.176 319.025 132.479 319.954 132.015C320.883 131.55 321.967 131.318 323.205 131.318C324.367 131.318 325.373 131.55 326.302 131.937C327.231 132.324 328.005 132.944 328.702 133.718C329.321 134.492 329.863 135.422 330.25 136.506C330.637 137.59 330.792 138.751 330.792 140.067C330.792 141.384 330.637 142.545 330.25 143.629C329.863 144.713 329.399 145.642 328.702 146.416C328.005 147.191 327.231 147.81 326.302 148.197C325.373 148.507 324.367 148.739 323.205 148.739Z" fill="white"/>
<path d="M272.732 128.685C275.751 128.685 278.229 126.208 278.229 123.188C278.229 120.168 275.751 117.69 272.732 117.69C269.713 117.69 267.236 120.168 267.236 123.188C267.236 126.208 269.713 128.685 272.732 128.685Z" fill="#DCDFE0"/>
<path d="M355.952 128.685C358.971 128.685 361.449 126.208 361.449 123.188C361.449 120.168 358.971 117.69 355.952 117.69C352.933 117.69 350.456 120.168 350.456 123.188C350.456 126.208 352.933 128.685 355.952 128.685Z" fill="#DCDFE0"/>
<path d="M272.732 154.469C275.751 154.469 278.229 151.991 278.229 148.972C278.229 145.952 275.751 143.474 272.732 143.474C269.713 143.474 267.236 145.952 267.236 148.972C267.236 151.991 269.713 154.469 272.732 154.469Z" fill="#DCDFE0"/>
<path d="M355.952 154.469C358.971 154.469 361.449 151.991 361.449 148.972C361.449 145.952 358.971 143.474 355.952 143.474C352.933 143.474 350.456 145.952 350.456 148.972C350.456 151.991 352.933 154.469 355.952 154.469Z" fill="#DCDFE0"/>
<path d="M272.732 180.252C275.751 180.252 278.229 177.774 278.229 174.755C278.229 171.735 275.751 169.257 272.732 169.257C269.713 169.257 267.236 171.735 267.236 174.755C267.236 177.774 269.713 180.252 272.732 180.252Z" fill="#DCDFE0"/>
<path d="M355.952 180.252C358.971 180.252 361.449 177.774 361.449 174.755C361.449 171.735 358.971 169.257 355.952 169.257C352.933 169.257 350.456 171.735 350.456 174.755C350.456 177.774 352.933 180.252 355.952 180.252Z" fill="#DCDFE0"/>
<path d="M272.732 205.959C275.751 205.959 278.229 203.481 278.229 200.461C278.229 197.442 275.751 194.964 272.732 194.964C269.713 194.964 267.236 197.442 267.236 200.461C267.236 203.558 269.713 205.959 272.732 205.959Z" fill="#DCDFE0"/>
<path d="M355.952 205.959C358.971 205.959 361.449 203.481 361.449 200.461C361.449 197.442 358.971 194.964 355.952 194.964C352.933 194.964 350.456 197.442 350.456 200.461C350.456 203.558 352.933 205.959 355.952 205.959Z" fill="#DCDFE0"/>
<path d="M272.732 231.742C275.751 231.742 278.229 229.264 278.229 226.244C278.229 223.225 275.751 220.747 272.732 220.747C269.713 220.747 267.236 223.225 267.236 226.244C267.236 229.342 269.713 231.742 272.732 231.742Z" fill="#DCDFE0"/>
<path d="M355.952 231.742C358.971 231.742 361.449 229.264 361.449 226.244C361.449 223.225 358.971 220.747 355.952 220.747C352.933 220.747 350.456 223.225 350.456 226.244C350.456 229.342 352.933 231.742 355.952 231.742Z" fill="#DCDFE0"/>
<path d="M272.732 257.525C275.751 257.525 278.229 255.047 278.229 252.028C278.229 249.008 275.751 246.53 272.732 246.53C269.713 246.53 267.236 249.008 267.236 252.028C267.236 255.125 269.713 257.525 272.732 257.525Z" fill="#DCDFE0"/>
<path d="M355.952 257.525C358.971 257.525 361.449 255.047 361.449 252.028C361.449 249.008 358.971 246.53 355.952 246.53C352.933 246.53 350.456 249.008 350.456 252.028C350.456 255.125 352.933 257.525 355.952 257.525Z" fill="#DCDFE0"/>
<path d="M272.732 627.786C275.751 627.786 278.229 625.309 278.229 622.289C278.229 619.269 275.751 616.792 272.732 616.792C269.713 616.792 267.236 619.269 267.236 622.289C267.236 625.386 269.713 627.786 272.732 627.786Z" fill="#DCDFE0"/>
<path d="M355.952 627.786C358.971 627.786 361.449 625.309 361.449 622.289C361.449 619.269 358.971 616.792 355.952 616.792C352.933 616.792 350.456 619.269 350.456 622.289C350.456 625.386 352.933 627.786 355.952 627.786Z" fill="#DCDFE0"/>
<path d="M272.732 653.57C275.751 653.57 278.229 651.093 278.229 648.073C278.229 645.053 275.751 642.576 272.732 642.576C269.713 642.576 267.236 645.053 267.236 648.073C267.236 651.093 269.713 653.57 272.732 653.57Z" fill="#DCDFE0"/>
<path d="M355.952 653.57C358.971 653.57 361.449 651.093 361.449 648.073C361.449 645.053 358.971 642.576 355.952 642.576C352.933 642.576 350.456 645.053 350.456 648.073C350.456 651.093 352.933 653.57 355.952 653.57Z" fill="#DCDFE0"/>
<path d="M272.732 394.651C275.751 394.651 278.229 392.173 278.229 389.154C278.229 386.134 275.751 383.656 272.732 383.656C269.713 383.656 267.236 386.134 267.236 389.154C267.236 392.251 269.713 394.651 272.732 394.651Z" fill="#DCDFE0"/>
<path d="M355.952 394.651C358.971 394.651 361.449 392.173 361.449 389.154C361.449 386.134 358.971 383.656 355.952 383.656C352.933 383.656 350.456 386.134 350.456 389.154C350.456 392.251 352.933 394.651 355.952 394.651Z" fill="#DCDFE0"/>
<path d="M272.732 420.433C275.751 420.433 278.229 417.956 278.229 414.936C278.229 411.916 275.751 409.438 272.732 409.438C269.713 409.438 267.236 411.916 267.236 414.936C267.236 418.033 269.713 420.433 272.732 420.433Z" fill="#DCDFE0"/>
<path d="M355.952 420.433C358.971 420.433 361.449 417.956 361.449 414.936C361.449 411.916 358.971 409.438 355.952 409.438C352.933 409.438 350.456 411.916 350.456 414.936C350.456 418.033 352.933 420.433 355.952 420.433Z" fill="#DCDFE0"/>
<path d="M272.732 446.218C275.751 446.218 278.229 443.741 278.229 440.721C278.229 437.701 275.751 435.224 272.732 435.224C269.713 435.224 267.236 437.701 267.236 440.721C267.236 443.741 269.713 446.218 272.732 446.218Z" fill="#DCDFE0"/>
<path d="M355.952 446.218C358.971 446.218 361.449 443.741 361.449 440.721C361.449 437.701 358.971 435.224 355.952 435.224C352.933 435.224 350.456 437.701 350.456 440.721C350.456 443.741 352.933 446.218 355.952 446.218Z" fill="#DCDFE0"/>
<path d="M272.732 472.001C275.751 472.001 278.229 469.523 278.229 466.503C278.229 463.484 275.751 461.006 272.732 461.006C269.713 461.006 267.236 463.484 267.236 466.503C267.236 469.523 269.713 472.001 272.732 472.001Z" fill="#DCDFE0"/>
<path d="M355.952 472.001C358.971 472.001 361.449 469.523 361.449 466.503C361.449 463.484 358.971 461.006 355.952 461.006C352.933 461.006 350.456 463.484 350.456 466.503C350.456 469.523 352.933 472.001 355.952 472.001Z" fill="#DCDFE0"/>
<path d="M272.732 497.785C275.751 497.785 278.229 495.307 278.229 492.287C278.229 489.268 275.751 486.79 272.732 486.79C269.713 486.79 267.236 489.268 267.236 492.287C267.236 495.307 269.713 497.785 272.732 497.785Z" fill="#DCDFE0"/>
<path d="M355.952 497.785C358.971 497.785 361.449 495.307 361.449 492.287C361.449 489.268 358.971 486.79 355.952 486.79C352.933 486.79 350.456 489.268 350.456 492.287C350.456 495.307 352.933 497.785 355.952 497.785Z" fill="#DCDFE0"/>
<path d="M272.732 523.569C275.751 523.569 278.229 521.091 278.229 518.072C278.229 515.052 275.751 512.574 272.732 512.574C269.713 512.574 267.236 515.052 267.236 518.072C267.236 521.091 269.713 523.569 272.732 523.569Z" fill="#DCDFE0"/>
<path d="M355.952 523.569C358.971 523.569 361.449 521.091 361.449 518.072C361.449 515.052 358.971 512.574 355.952 512.574C352.933 512.574 350.456 515.052 350.456 518.072C350.456 521.091 352.933 523.569 355.952 523.569Z" fill="#DCDFE0"/>
<path d="M40.6431 280.831H46.1405V105.302H40.6431V280.831Z" fill="#DCDFE0"/>
<path d="M532.149 382.029H386.841V373.822H532.071V382.029H532.149Z" fill="#DCDFE0"/>
<path d="M381.498 226.322H389.704V324.036H381.498V226.322Z" fill="#DCDFE0"/>
<path d="M238.205 226.322H246.411V324.036H238.205V226.322Z" fill="#DCDFE0"/>
<path d="M503.195 670.605H494.989V616.87H503.195V670.605Z" fill="#DCDFE0"/>
<path d="M133.154 670.605H124.948V616.87H133.154V670.605Z" fill="#DCDFE0"/>
<path d="M70.8339 541.3H41.9583V533.092H70.8339V541.3Z" fill="#DCDFE0"/>
<path d="M70.8339 382.029H41.9583V373.822H70.8339V382.029Z" fill="#DCDFE0"/>
<path d="M70.8339 283.154H41.9583V274.947H70.8339V283.154Z" fill="#DCDFE0"/>
<path d="M70.8339 112.348H41.9583V104.14H70.8339V112.348Z" fill="#DCDFE0"/>
<path d="M278.227 112.348H244.474V104.14H278.227V112.348Z" fill="#DCDFE0"/>
<path d="M384.209 112.348H350.456V104.14H384.209V112.348Z" fill="#DCDFE0"/>
<path d="M383.667 674.707H350.378V666.5H383.667V674.707Z" fill="#DCDFE0"/>
<path d="M278.228 674.707H238.205V666.5H278.228V674.707Z" fill="#DCDFE0"/>
<path d="M587.266 382.029H558.391V373.822H587.266V382.029Z" fill="#DCDFE0"/>
<path d="M587.267 283.154H558.314V274.947H587.267V283.154Z" fill="#DCDFE0"/>
<path d="M587.267 112.348H558.314V104.14H587.267V112.348Z" fill="#DCDFE0"/>
<path d="M350.457 47.4634V71.6984H278.229V47.4634H270.023V108.167H278.229V79.9057H350.457V108.167H358.663V47.4634H350.457Z" fill="#DCDFE0"/>
<path d="M450.244 445.598H486.164V481.524H450.244V445.598Z" fill="#2E4083"/>
<path d="M486.164 469.524H450.244V466.659H486.164V469.524Z" fill="white"/>
<path d="M486.164 461.626H450.244V458.761H486.164V461.626Z" fill="white"/>
<path d="M486.164 453.651H450.244V450.786H486.164V453.651Z" fill="white"/>
<path d="M450.012 481.602H486.088V445.521H450.012V481.602ZM490.113 485.629H445.987V441.495H490.113V485.629Z" fill="white"/>
<path d="M446.217 388.843H422.529V367.551H446.217V388.843Z" fill="#2E4083"/>
<path d="M396.207 340.296H381.498V316.603H396.207V340.296Z" fill="#2E4083"/>
<path d="M246.409 340.296H230.771V316.603H246.409V340.296Z" fill="#2E4083"/>
<path d="M294.407 497.63H334.585V502.895H294.407V497.63ZM294.407 406.884H334.585V411.685H294.407V406.884ZM294.407 414.395H334.585V419.195H294.407V414.395ZM294.407 421.983H334.585V426.783H294.407V421.983ZM294.407 429.571H334.585V434.371H294.407V429.571ZM294.407 437.081H334.585V441.882H294.407V437.081ZM294.407 444.669H334.585V449.47H294.407V444.669ZM294.407 452.257H334.585V457.058H294.407V452.257ZM294.407 459.845H334.585V464.646H294.407V459.845ZM294.407 467.355H334.585V472.156H294.407V467.355ZM294.407 474.943H334.585V479.744H294.407V474.943ZM334.585 494.92H294.407V490.119H334.585V494.92ZM294.407 482.531H334.585V487.332H294.407V482.531ZM334.585 404.097H294.407V398.677H334.585V404.097ZM291.697 505.682H337.372V395.967H291.697V505.682Z" fill="white"/>
<path d="M336.598 504.598H292.472V495.926H336.598V504.598Z" fill="white"/>
</svg>
